<svg width="105" height="19" viewBox="0 0 105 19" fill="none" xmlns="http://www.w3.org/2000/svg">
<g id="Barclays">
<path id="Fill 56" fill-rule="evenodd" clip-rule="evenodd" d="M103.72 5.72919C103.187 4.77459 102.016 4.03165 100.738 4.03165C99.6196 4.03165 98.661 4.45619 98.661 5.62318C98.661 6.63108 99.886 7.26765 101.164 8.11623C102.549 8.96494 103.987 10.026 103.987 11.8824C103.987 14.2697 101.643 15.8082 98.874 15.8082C97.7556 15.8082 96.5842 15.5958 95.2529 15.1185L95.4659 11.9357C96.105 13.2087 97.2765 14.2166 99.0337 14.2166C100.365 14.2166 101.43 13.5799 101.43 12.4131C101.43 11.4584 100.631 10.8218 99.6196 10.2383C97.4893 8.96518 96.1581 7.95727 96.1581 6.10078C96.1581 3.34239 98.4479 2.44061 100.898 2.44061C102.282 2.44061 103.188 2.70583 104.04 2.70583L103.72 5.72919ZM92.0039 8.64665C91.7377 9.17732 91.3116 9.81376 91.0984 10.3442C90.8856 11.2989 90.8323 12.5723 90.8323 13.9514C90.8323 14.5349 90.9388 15.3305 91.2051 15.5958H87.6904C88.3293 15.0124 88.5423 11.4582 88.5423 10.291C88.063 8.69984 87.4239 7.10832 86.4653 5.19888C85.8264 4.03177 85.1341 2.91772 84.6547 2.70558C85.4536 2.65251 86.4653 2.59944 86.9447 2.59944C87.7967 2.59944 88.063 2.70558 88.5955 3.87244C89.4476 5.78225 90.0335 7.21433 90.4062 8.22212C91.2581 6.84298 91.8973 5.88826 92.6962 4.56219C92.856 4.24391 93.0689 3.81938 93.0689 3.44803C93.0689 3.18281 93.0157 2.81159 92.9092 2.70545H96.3707C95.6252 2.86478 92.643 7.58604 92.0039 8.64665ZM79.8627 5.72927L77.7861 10.2384H81.1407L79.8627 5.72927ZM83.9108 15.7019C82.7925 15.7019 82.7395 15.6489 81.8339 12.6252L81.5145 11.5113C80.9819 11.7765 80.0232 11.8824 78.5324 11.8824H76.9346L76.6686 12.4659C76.2425 13.3147 75.763 14.3226 75.763 15.0121C75.763 15.1712 75.8164 15.3835 75.8164 15.5956H66.6568C67.1893 15.0121 67.349 13.1024 67.6151 9.70747L67.6685 8.91171C67.8281 6.94908 67.8814 5.46381 67.8814 4.40283C67.8814 3.55425 67.7749 2.97051 67.562 2.70542H71.1298C70.5973 3.07652 70.4375 5.14541 70.2245 8.59343L70.1715 9.38931C70.1181 10.6623 69.9052 11.9884 69.9052 13.2086C69.9052 13.7921 70.1181 13.9511 70.7571 13.9511C72.9405 13.9511 73.4197 13.8983 74.4315 13.2616C75.0706 12.1476 75.7096 10.7683 76.402 9.33612L77.3073 7.42668C78.1592 5.62289 79.0115 3.76627 79.0115 3.44799C79.0115 3.18278 78.9582 2.97075 78.8516 2.70542H81.6741C81.6741 2.70542 82.7925 6.89601 83.0588 7.79766L83.5913 9.8136C84.5498 13.2614 85.1358 14.906 85.9877 15.5428C85.2423 15.6489 84.2303 15.7019 83.9108 15.7019ZM61.117 15.8612C57.7621 15.8612 55.845 13.1028 55.845 10.0789C55.845 5.83538 58.1882 2.49337 62.6082 2.49337C63.9929 2.49337 64.6318 2.75858 65.8032 2.75858L65.4837 6.04752C64.8448 4.88054 63.7796 4.13784 62.395 4.13784C59.6259 4.13784 58.5077 7.10826 58.5077 9.6545C58.5077 12.4129 60.1051 13.9514 62.1288 13.9514C63.2473 13.9514 64.259 13.686 65.9098 12.519C65.2176 14.5348 63.6731 15.8612 61.117 15.8612ZM49.5612 4.29694C49.2418 4.29694 48.8689 4.29694 48.5495 4.35013C48.443 4.88055 48.3898 5.83527 48.2832 7.37361L48.2301 8.27563C48.3898 8.32833 48.6562 8.32833 48.816 8.32833C50.4134 8.32833 51.5318 7.32054 51.5318 5.88834C51.4785 4.88055 50.7862 4.29694 49.5612 4.29694ZM54.2475 16.1262C53.289 16.1262 53.0762 15.9672 52.7567 15.5427L49.0821 10.5565C48.816 10.1321 48.5495 9.86685 48.1236 9.86685H48.0706L48.0172 10.8746C47.9641 12.2009 47.8575 13.2617 47.8575 14.0574C47.8575 14.906 47.9641 15.4366 48.2303 15.6488H44.7157C45.2482 15.2243 45.408 13.7392 45.7274 9.76059L45.7804 8.96495C45.9403 7.05539 45.9935 5.51717 45.9935 4.45595C45.9935 3.5543 45.8871 2.97081 45.6208 2.75854H50.3606C51.9581 2.75854 54.035 3.02375 54.035 5.51693C54.035 7.58569 52.6505 8.69974 50.9463 9.23016C51.106 9.38936 51.4255 9.76059 51.5853 9.97286L54.1948 13.4208C55.8456 15.5957 55.9521 15.7018 56.5381 15.967C55.8453 16.0733 54.8867 16.1262 54.2475 16.1262ZM37.9522 5.72927L35.822 10.2384H39.2303L37.9522 5.72927ZM42.0002 15.7018C40.8819 15.7018 40.7753 15.6488 39.9234 12.6251L39.6038 11.5112C39.0711 11.7764 38.1127 11.8823 36.6216 11.8823H35.0771L34.8108 12.4658C34.5446 13.0494 33.9055 14.2696 33.9055 15.012C33.9055 15.1711 33.9055 15.3303 33.9587 15.5955H30.8701C31.722 14.7469 32.8937 12.6779 34.438 9.38924L35.3433 7.47944C36.1422 5.72883 37.0474 3.76608 37.0474 3.50099C37.0474 3.2359 36.9943 3.02351 36.8877 2.75817H39.7103C39.7103 2.75817 40.4558 5.51657 41.0949 7.85079L41.6275 9.86648C42.5859 13.3144 43.225 14.9587 43.9706 15.5955C43.225 15.6488 42.3198 15.7018 42.0002 15.7018ZM26.0229 4.24391C25.7565 4.24391 25.4371 4.24391 25.1175 4.29674C24.9579 5.19876 24.9045 6.04722 24.8515 7.05513C24.8515 7.05513 24.7981 7.85089 24.7981 7.79783H25.1176C26.7684 7.79783 28.2598 7.21433 28.2598 5.72906C28.3128 4.88048 27.5672 4.24391 26.0229 4.24391ZM25.6506 9.33606H24.7454L24.5857 11.2459C24.5324 12.0945 24.4791 12.7843 24.4791 13.6329C24.4791 13.739 24.852 14.0044 25.7041 14.0044C27.5147 14.0044 28.6863 13.1024 28.6863 11.6171C28.7393 9.97275 27.3016 9.33606 25.6506 9.33606ZM25.8103 15.5957H21.2836C21.8694 15.0652 22.0294 13.1554 22.2422 9.70766L22.2954 8.9119C22.4551 7.0021 22.5085 5.464 22.5085 4.40303C22.5085 3.50125 22.4018 2.91764 22.1357 2.70561H27.1946C28.4196 2.70561 30.816 2.75844 30.816 5.25161C30.816 6.94915 29.2715 7.95694 27.8338 8.32816C29.8575 8.48736 31.3487 9.49515 31.3487 11.5642C31.4019 13.7921 29.2717 15.5957 25.8103 15.5957Z" fill="#98A0A6"/>
<path id="Fill 58" fill-rule="evenodd" clip-rule="evenodd" d="M16.1175 4.56232C15.9576 4.19097 15.6914 3.76656 15.212 3.44828C14.9991 3.28932 14.733 3.13 14.4665 3.02386C14.2534 2.97104 14.0404 2.91773 13.7742 2.91773H13.721C13.4015 2.91773 12.8157 2.97092 12.4962 3.44828C12.3365 3.60736 12.2831 3.92576 12.3365 4.19097C12.3896 4.40324 12.5494 4.61539 12.7625 4.66846C12.7625 4.66846 12.8157 4.7214 12.9222 4.7214C12.9222 4.77447 12.869 4.88036 12.869 4.88036C12.7093 5.03944 12.4429 5.30477 11.6442 5.30477H11.5908C11.1648 5.25195 10.8454 5.14581 10.3661 4.66833C10.1 4.35005 9.94005 3.76632 9.94005 2.86478C9.94005 2.38742 9.88678 2.01595 9.78035 1.69779C9.72708 1.48553 9.51422 1.27338 9.35427 1.16725C9.19445 1.06111 9.08814 1.00817 8.82164 0.901911C8.50199 0.849208 8.18247 0.795898 7.91633 0.795898C7.59681 0.795898 7.38371 0.848965 7.27716 1.00817H6.95775C6.79817 1.00817 6.58519 1.06111 6.42536 1.06111C6.10559 1.11406 5.89274 1.27338 5.67951 1.43246C5.62636 1.48528 5.41326 1.69755 5.36011 1.9097C5.36011 2.06878 5.41314 2.22798 5.41314 2.28105L5.46641 2.33387C5.57296 2.22774 5.78594 2.17491 6.0522 2.17491C6.425 2.17491 6.95738 2.33387 7.06393 2.59933C7.33019 3.02374 7.22364 3.34202 7.22364 3.71337C7.06393 4.72128 6.69125 5.19864 5.89237 5.30453C5.73279 5.35772 5.57284 5.35772 5.46629 5.35772C4.88051 5.35772 4.45443 5.19864 4.24133 4.82717V4.72104C4.24133 4.72104 4.29473 4.72104 4.34788 4.66809C4.56086 4.56196 4.72069 4.403 4.77396 4.19061C4.82711 3.92564 4.77396 3.66018 4.61438 3.44791C4.29485 3.12963 3.86865 2.91736 3.38942 2.91736C3.06989 2.91736 2.85679 2.97055 2.64381 3.0235C2.00451 3.1827 1.41885 3.71313 0.993017 4.56196C0.673489 5.19864 0.460267 5.94109 0.407235 6.79004C0.354082 7.63875 0.354082 8.32838 0.407235 8.96494C0.460267 10.0257 0.673489 10.6624 0.939864 11.3519C1.20612 12.0414 1.52565 12.6781 1.89821 13.2615C2.00476 13.4205 2.05803 13.5798 2.16446 13.686L2.21773 13.633C2.27076 13.5799 2.32428 13.5269 2.37744 13.4206C2.59029 13.2618 2.96322 12.7312 3.06977 12.572C3.17632 12.413 3.3359 12.1477 3.44233 11.8824L3.4956 11.7765L3.60215 11.8295C3.70858 11.9356 3.76186 12.0946 3.76186 12.2539C3.76186 12.413 3.70858 12.572 3.60215 12.8904C3.4956 13.2618 3.2825 13.6862 3.06952 14.1105C3.12256 14.1634 3.12256 14.2697 3.06952 14.2697C2.90982 14.5348 2.90982 14.6408 2.90982 14.7471H2.96297C3.01601 14.7471 3.22911 14.6941 3.38905 14.5348C3.54863 14.4288 3.97483 14.0574 4.50746 13.3147C4.93354 12.7842 5.19967 12.2007 5.5192 11.5641L5.57248 11.4581L5.6789 11.5112C5.73218 11.564 5.78545 11.564 5.83861 11.6171C5.89176 11.7233 5.89176 11.8823 5.89176 12.0415C5.83861 12.4659 5.57235 13.0496 5.41253 13.4741C5.09288 14.2166 4.50722 15.0125 4.08126 15.5958C4.08126 15.6487 3.97471 15.7548 3.92144 15.7548C3.97471 15.8078 4.02799 15.8611 4.13442 15.9139L4.29436 16.073C4.8799 16.5505 5.41253 16.9217 6.10474 17.2931C6.63737 17.6115 7.7025 18.1418 8.44811 18.3539C9.19359 18.1951 10.2589 17.6112 10.7915 17.2931C11.4837 16.922 12.0161 16.5505 12.602 16.073L12.7617 15.9139C12.8681 15.8611 12.9214 15.7548 12.9747 15.7548C13.0279 15.6487 13.0279 15.5958 13.0279 15.5428L12.9747 15.4896C12.5487 14.9591 11.9628 14.1105 11.6434 13.3678C11.4837 12.9435 11.2173 12.36 11.1639 11.9356C11.1109 11.7765 11.1639 11.6171 11.2173 11.5112L11.3236 11.4051C11.3769 11.3521 11.4834 11.3521 11.4834 11.3521L11.5366 11.4581C11.8561 12.0948 12.1758 12.6783 12.5485 13.2086C13.0811 13.9513 13.5069 14.3226 13.6667 14.4288C13.8265 14.5879 13.9864 14.6408 14.0929 14.6408H14.1461C14.1993 14.5881 14.1461 14.482 13.9864 14.2165C13.9331 14.1634 13.9331 14.1104 13.9331 14.0574C13.7203 13.633 13.5072 13.2088 13.4006 12.8373C13.2939 12.519 13.2409 12.3067 13.2409 12.2007C13.2409 12.0415 13.2939 11.8823 13.4006 11.7763L13.5072 11.7233L13.5602 11.8295C13.6667 12.0947 13.88 12.4127 13.9864 12.5722C14.0929 12.7312 14.519 13.2088 14.6256 13.3678C14.7321 13.4741 14.7852 13.5269 14.7852 13.5799L14.8383 13.633C14.8915 13.5799 14.9449 13.4741 15.0514 13.2618L15.1044 13.2088C15.4242 12.6783 15.7437 11.9887 16.0099 11.299C16.2762 10.6625 16.436 9.97297 16.5425 8.91199C16.5957 8.27543 16.6489 7.5858 16.5425 6.73722C16.5968 5.94146 16.3835 5.14581 16.1175 4.56232Z" fill="#98A0A6"/>
</g>
</svg>
