<svg fill="none"
  xmlns="http://www.w3.org/2000/svg" viewBox="0 0 108 40">
  <path fill-rule="evenodd" clip-rule="evenodd" d="M10.988 11.032a1.431 1.431 0 00-.135.089L1.046 5.452.54 5.161a1.34 1.34 0 01.14-.092L9.132.182a1.36 1.36 0 011.36 0l8.454 4.887c.366.212.61.58.666.992-.059.024-.116.052-.172.084l-8.453 4.887zm18.425 12.024a1.315 1.315 0 00-.155-.105l-8.453-4.887a1.366 1.366 0 00-1.17-.09l-.029.01c-.055.023-.109.05-.162.08l-8.452 4.887c-.053.03-.104.064-.15.1l-.01.006a1.36 1.36 0 01-.51-.884l.01-.006c.055-.023.109-.05.161-.08l8.454-4.886c.052-.03.102-.064.15-.1l.024-.021a1.357 1.357 0 00.506-1.058V6.248c0-.063-.005-.126-.014-.187l.022-.008a1.36 1.36 0 011.02.02h.002c.049.02.097.045.144.072l8.453 4.887c.421.243.68.692.68 1.18v9.773c0 .054-.003.108-.01.16v.001a1.36 1.36 0 01-.5.902l-.007.005-.004.003zm0 0c.329.255.524.648.525 1.07v9.74c0 .485-.26.933-.68 1.176l-8.453 4.881a1.383 1.383 0 01-.15.075V28.106c.05-.021.098-.046.146-.073l8.453-4.87c.056-.032.11-.068.16-.107zM19.635 40a1.386 1.386 0 01-.19-.09l-8.454-4.87c-.42-.243-.68-.69-.68-1.175v-9.739c0-.42.195-.812.521-1.068.05.038.101.074.156.105l.364.21 8.089 4.66c.063.036.128.066.194.091V40zM9.133 22.087c.365.21.803.24 1.188.084a1.303 1.303 0 01-.013-.187v-9.773c0-.073.006-.145.017-.215L1.03 6.622.017 6.037A1.35 1.35 0 000 6.248v9.773c0 .487.26.936.68 1.18l8.453 4.886z" fill="#009EFF"/>
  <path fill-rule="evenodd" clip-rule="evenodd" d="M47.783 29.86c-5.66 0-8.49-3.176-8.49-9.529 0-3.158.74-5.54 2.219-7.146 1.478-1.606 3.568-2.41 6.271-2.41 1.289 0 2.467.26 3.538.777 1.07.517 1.932 1.22 2.585 2.11.127.181.19.372.19.571a.847.847 0 01-.244.626.846.846 0 01-.626.245.85.85 0 01-.708-.353c-.49-.672-1.156-1.221-2-1.648a5.979 5.979 0 00-2.735-.64c-2.122 0-3.75.654-4.884 1.96-1.134 1.308-1.7 3.277-1.7 5.908 0 2.74.553 4.733 1.66 5.976 1.106 1.243 2.748 1.865 4.924 1.865.944 0 1.841-.191 2.694-.572.853-.38 1.534-.935 2.041-1.66.164-.237.4-.354.708-.354a.862.862 0 01.87.87.92.92 0 01-.162.518c-.6.871-1.461 1.57-2.586 2.096a8.312 8.312 0 01-3.565.79zM57.039 17.106a.86.86 0 01.612-.245c.236 0 .44.087.612.259a.839.839 0 01.259.612v7.106c0 1.016.235 1.82.707 2.409.472.59 1.342.885 2.613.885 1.27 0 2.14-.295 2.612-.885.472-.59.708-1.393.708-2.41v-7.105c0-.235.085-.44.258-.612a.87.87 0 01.64-.259c.235 0 .435.087.598.259a.86.86 0 01.245.612v7.106c0 1.506-.363 2.709-1.089 3.607-.725.898-2.05 1.347-3.972 1.347-1.923 0-3.248-.449-3.973-1.347-.726-.898-1.089-2.1-1.089-3.607v-7.106c0-.253.086-.462.259-.626zM71.193 20.632v3.757c0 1.253.327 2.197.98 2.832.653.635 1.524.952 2.612.952 2.558 0 3.837-1.66 3.837-4.981 0-3.303-1.279-4.956-3.837-4.956-.471 0-.92.083-1.347.246-.426.163-.771.363-1.034.599s-.49.472-.68.707c-.19.237-.322.436-.395.6l-.136.244zm3.701-3.974c3.646 0 5.47 2.178 5.47 6.534 0 2.195-.482 3.838-1.443 4.927-.962 1.089-2.34 1.633-4.136 1.633-1.614 0-2.907-.458-3.877-1.374-.97-.917-1.456-2.246-1.456-3.989V10.886c0-.253.086-.462.259-.626a.858.858 0 01.611-.245.86.86 0 01.613.245.824.824 0 01.258.626v7.541c.345-.49.844-.907 1.497-1.252.653-.345 1.388-.517 2.204-.517zM84.625 20.632v3.757c0 1.253.327 2.197.98 2.832.653.635 1.524.952 2.612.952 2.558 0 3.837-1.66 3.837-4.981 0-3.303-1.279-4.956-3.837-4.956-.472 0-.921.083-1.347.246-.426.163-.771.363-1.034.599a6.22 6.22 0 00-.68.707c-.19.237-.323.436-.395.6l-.136.244zm3.7-3.974c3.647 0 5.47 2.178 5.47 6.534 0 2.195-.48 3.838-1.442 4.927-.962 1.089-2.34 1.633-4.136 1.633-1.615 0-2.907-.458-3.878-1.374-.97-.917-1.455-2.246-1.455-3.989V10.886c0-.253.085-.462.258-.626a.86.86 0 01.612-.245.86.86 0 01.612.245.826.826 0 01.26.626v7.541c.343-.49.842-.907 1.496-1.252.653-.345 1.388-.517 2.204-.517zM98.474 17.597V28.65a.848.848 0 01-.245.626.848.848 0 01-.626.245.846.846 0 01-.626-.245.848.848 0 01-.245-.626V17.597a.85.85 0 01.245-.626.847.847 0 01.626-.245c.254 0 .463.082.626.245a.85.85 0 01.245.626zm-.871-3.43c-.69 0-1.034-.345-1.034-1.034 0-.726.344-1.09 1.034-1.09.69 0 1.034.364 1.034 1.09 0 .69-.345 1.034-1.034 1.034zM103.008 17.04v-2.858c0-.236.086-.44.259-.612a.835.835 0 01.612-.259c.236 0 .44.086.612.259a.84.84 0 01.259.612v2.859h1.768c.236 0 .431.077.585.23.154.155.232.35.232.586a.794.794 0 01-.817.817h-1.768v7.514c0 .562.144 1.003.435 1.32.29.318.671.476 1.143.476a.84.84 0 01.598.232.77.77 0 01.246.585.769.769 0 01-.246.586.84.84 0 01-.598.23c-1.053 0-1.869-.316-2.449-.952-.581-.635-.871-1.46-.871-2.477v-7.514h-1.061a.792.792 0 01-.816-.817.791.791 0 01.816-.816h1.061z" fill="#161616"/>
</svg>