<svg width="193" height="34" viewBox="0 0 193 34" fill="none" xmlns="http://www.w3.org/2000/svg">
<path d="M147.605 16.4362L146.642 16.6931C145.743 13.6113 144.202 12.263 142.084 12.263C140.607 12.263 139.515 13.226 139.515 14.8311C139.515 16.3078 140.735 17.1425 144.138 18.4908C147.22 19.6464 148.504 21.0589 148.504 23.4987C148.504 27.2225 145.615 29.5339 140.8 29.5339C138.488 29.5339 135.856 29.0202 134.443 28.4424L134.251 23.3061L135.15 23.1135C136.498 26.6447 138.231 27.993 140.543 27.993C142.533 27.993 143.56 26.6447 143.56 25.2322C143.56 23.8197 142.79 23.0493 139.708 21.8936C136.819 20.9305 134.764 19.7106 134.764 16.5646C134.764 13.4828 137.461 10.9147 142.019 10.9147C144.202 10.9147 146.129 11.2999 147.413 11.8777L147.605 16.4362ZM127.83 18.0413C127.959 15.6016 127.445 12.1346 125.455 12.1346C123.4 12.1346 122.309 15.409 122.245 18.234L127.83 18.0413ZM125.968 10.9147C130.976 10.9147 133.416 14.5743 133.48 19.3896H122.18C122.116 23.6913 124.428 26.9015 128.665 26.9015C130.527 26.9015 131.554 26.3879 132.71 25.5532L133.223 26.1311C132.004 27.8004 129.371 29.4697 125.968 29.4697C120.447 29.4697 116.595 25.6816 116.595 20.3527C116.595 15.5374 119.741 10.9147 125.968 10.9147ZM109.661 19.9033C109.532 16.051 108.184 13.0334 105.487 13.0334C104.845 13.0334 104.332 13.1618 103.625 13.4186L103.818 28.1214C104.075 28.2498 104.717 28.314 105.166 28.314C107.734 28.2498 109.661 24.5902 109.661 19.9033ZM115.246 19.5822C115.246 25.6174 111.394 29.5339 104.974 29.5339C102.662 29.5339 100.287 29.1487 98.2323 28.6992C98.4249 26.2595 98.4249 11.2357 98.2323 8.41073C98.0396 6.93403 97.6544 6.22779 96.4987 6.09938L95.7283 6.03517V5.32893L103.69 3.85223C103.625 5.07211 103.561 8.41073 103.561 12.263C104.974 11.5567 106.258 11.1715 107.991 11.1715C112.165 11.1715 115.246 14.7027 115.246 19.5822ZM94.9578 16.3078C92.5181 14.7027 89.8215 15.409 89.3079 16.3078C89.0511 19.1328 89.1153 23.4987 89.3721 25.7458C89.5005 27.2225 89.8857 27.8646 91.0414 27.9288L92.5181 28.0572V29.0202H81.2182V28.0572L82.117 27.9288C83.2085 27.8004 83.5937 27.2225 83.6579 25.7458C83.9147 23.3703 83.9789 18.3624 83.6579 15.6016C83.5937 13.9965 83.2085 13.4186 82.117 13.2902L81.2182 13.1618V12.5198L89.3079 10.9147L89.1795 15.0237C91.0414 10.7863 94.8294 10.2726 96.884 11.3641L94.9578 16.3078ZM68.5058 20.2243C68.5058 24.7186 69.7256 28.3782 72.1654 28.3782C74.7978 28.3782 75.5682 24.7828 75.5682 20.2243C75.5682 15.6658 74.4125 12.1346 71.9086 12.1346C69.2762 12.1346 68.5058 15.6016 68.5058 20.2243ZM81.2824 20.1601C81.2824 25.2964 77.8796 29.5339 71.7802 29.5339C65.8092 29.5339 62.7916 25.5532 62.7916 20.3527C62.7916 15.2164 66.1944 10.9789 72.2938 10.9789C78.2648 10.9147 81.2824 14.9595 81.2824 20.1601ZM65.6166 11.2999L64.3967 11.6851C63.3694 8.0897 61.5075 6.03517 58.2973 6.03517H54.124C53.8672 8.41073 53.803 12.1346 53.8672 16.1794L56.6922 16.051C58.5541 16.051 59.3888 14.7027 59.8382 12.7124H60.8655V21.0589H59.8382C59.3888 19.0044 58.6183 17.6561 56.6922 17.5277L53.8672 17.4635C53.8672 20.4169 53.9314 22.9851 54.124 24.526C54.3167 26.7089 54.8945 27.7362 56.5638 27.9288L58.1047 28.0572V29.0202H44.3008V28.0572L45.4565 27.9288C47.0616 27.7362 47.7036 26.7089 47.8962 24.526C48.2173 20.9305 48.2815 13.226 47.8962 8.92436C47.7036 6.61301 47.0616 5.71415 45.4565 5.52154L44.3008 5.39313V4.36587H65.6166V11.2999Z" fill="#B0B6BA"/>
</svg>
