<svg width="105" height="27" viewBox="0 0 105 27" fill="none" xmlns="http://www.w3.org/2000/svg">
<path d="M103.605 13.4362L102.642 13.6931C101.743 10.6113 100.202 9.26297 98.0837 9.26297C96.607 9.26297 95.5155 10.226 95.5155 11.8311C95.5155 13.3078 96.7354 14.1425 100.138 15.4908C103.22 16.6464 104.504 18.0589 104.504 20.4987C104.504 24.2225 101.615 26.5339 96.7996 26.5339C94.4882 26.5339 91.8559 26.0202 90.4434 25.4424L90.2508 20.3061L91.1496 20.1135C92.4979 23.6447 94.2314 24.993 96.5427 24.993C98.5331 24.993 99.5603 23.6447 99.5603 22.2322C99.5603 20.8197 98.7899 20.0493 95.7081 18.8936C92.8189 17.9305 90.7644 16.7106 90.7644 13.5646C90.7644 10.4828 93.461 7.91469 98.0194 7.91469C100.202 7.91469 102.129 8.29991 103.413 8.87775L103.605 13.4362ZM83.8303 15.0413C83.9588 12.6016 83.4451 9.13456 81.4548 9.13456C79.4003 9.13456 78.3088 12.409 78.2446 15.234L83.8303 15.0413ZM81.9684 7.91469C86.9763 7.91469 89.4161 11.5743 89.4803 16.3896H78.1804C78.1162 20.6913 80.4275 23.9015 84.665 23.9015C86.5269 23.9015 87.5542 23.3879 88.7099 22.5532L89.2235 23.1311C88.0036 24.8004 85.3712 26.4697 81.9684 26.4697C76.4469 26.4697 72.5946 22.6816 72.5946 17.3527C72.5946 12.5374 75.7406 7.91469 81.9684 7.91469ZM65.6606 16.9033C65.5322 13.051 64.1839 10.0334 61.4873 10.0334C60.8453 10.0334 60.3316 10.1618 59.6254 10.4186L59.818 25.1214C60.0748 25.2498 60.7169 25.314 61.1663 25.314C63.7345 25.2498 65.6606 21.5902 65.6606 16.9033ZM71.2463 16.5822C71.2463 22.6174 67.3941 26.5339 60.9737 26.5339C58.6623 26.5339 56.2868 26.1487 54.2323 25.6992C54.4249 23.2595 54.4249 8.23571 54.2323 5.41073C54.0396 3.93403 53.6544 3.22779 52.4987 3.09938L51.7283 3.03517V2.32893L59.6896 0.852234C59.6254 2.07211 59.5612 5.41073 59.5612 9.26297C60.9737 8.55673 62.2578 8.1715 63.9913 8.1715C68.1645 8.1715 71.2463 11.7027 71.2463 16.5822ZM50.9578 13.3078C48.5181 11.7027 45.8215 12.409 45.3079 13.3078C45.0511 16.1328 45.1153 20.4987 45.3721 22.7458C45.5005 24.2225 45.8857 24.8646 47.0414 24.9288L48.5181 25.0572V26.0202H37.2182V25.0572L38.117 24.9288C39.2085 24.8004 39.5937 24.2225 39.6579 22.7458C39.9147 20.3703 39.9789 15.3624 39.6579 12.6016C39.5937 10.9965 39.2085 10.4186 38.117 10.2902L37.2182 10.1618V9.51979L45.3079 7.91469L45.1795 12.0237C47.0414 7.78628 50.8294 7.27264 52.884 8.36411L50.9578 13.3078ZM24.5058 17.2243C24.5058 21.7186 25.7256 25.3782 28.1654 25.3782C30.7978 25.3782 31.5682 21.7828 31.5682 17.2243C31.5682 12.6658 30.4125 9.13456 27.9086 9.13456C25.2762 9.13456 24.5058 12.6016 24.5058 17.2243ZM37.2824 17.1601C37.2824 22.2964 33.8796 26.5339 27.7802 26.5339C21.8092 26.5339 18.7916 22.5532 18.7916 17.3527C18.7916 12.2164 22.1944 7.97889 28.2938 7.97889C34.2648 7.91469 37.2824 11.9595 37.2824 17.1601ZM21.6166 8.29991L20.3967 8.68513C19.3694 5.0897 17.5075 3.03517 14.2973 3.03517H10.124C9.86722 5.41073 9.80302 9.13456 9.86722 13.1794L12.6922 13.051C14.5541 13.051 15.3888 11.7027 15.8382 9.7124H16.8655V18.0589H15.8382C15.3888 16.0044 14.6183 14.6561 12.6922 14.5277L9.86722 14.4635C9.86722 17.4169 9.93143 19.9851 10.124 21.526C10.3167 23.7089 10.8945 24.7362 12.5638 24.9288L14.1047 25.0572V26.0202H0.300812V25.0572L1.45649 24.9288C3.06159 24.7362 3.70363 23.7089 3.89624 21.526C4.21726 17.9305 4.28147 10.226 3.89624 5.92436C3.70363 3.61301 3.06159 2.71415 1.45649 2.52154L0.300812 2.39313V1.36587H21.6166V8.29991Z" fill="#B0B6BA"/>
</svg>
