<svg width="136" height="16" viewBox="0 0 136 16" fill="none" xmlns="http://www.w3.org/2000/svg">
<path d="M4.96503 5.47956L7.74184 1.44394C8.26017 0.70346 8.96363 0.33322 9.77816 0.33322C10.4816 0.33322 11.037 0.555364 11.5553 1.0737C12.0366 1.55501 12.2958 2.1474 12.2958 2.81383C12.2958 3.29514 12.1477 3.73943 11.8885 4.14669L9.37089 7.77505L12.4439 11.6626C12.7771 12.0328 12.8882 12.5141 12.8882 13.0325C12.8882 13.7359 12.666 14.2913 12.1477 14.8096C11.6664 15.2909 11.074 15.5501 10.3705 15.5501C9.63006 15.5501 9.03768 15.328 8.63041 14.8096L4.92801 10.1076V12.6992C4.92801 13.4397 4.81694 13.9951 4.55777 14.4394C4.11348 15.1799 3.41002 15.5501 2.52145 15.5501C1.70692 15.5501 1.07751 15.2909 0.633217 14.7356C0.225952 14.1432 0.0408325 13.4768 0.0408325 12.6622V3.073C0.0408325 2.29549 0.225954 1.62906 0.670243 1.11072C1.11453 0.592385 1.74394 0.296194 2.52145 0.296194C3.26193 0.296194 3.89134 0.592385 4.37265 1.11072C4.66884 1.40691 4.81693 1.70311 4.89098 1.9993C4.96503 2.18442 4.96503 2.55466 4.96503 3.073V5.47956ZM18.775 3.36919V12.6622C18.775 13.4768 18.5899 14.1432 18.1456 14.6615C17.7013 15.2539 17.0719 15.5131 16.2944 15.5131C15.5539 15.5131 14.9615 15.2539 14.4802 14.6985C14.0729 14.2543 13.8508 13.5878 13.8508 12.6622V3.36919C13.8508 2.33252 14.0359 1.59203 14.4802 1.11072C14.9615 0.555361 15.5909 0.296194 16.3314 0.296194C17.0719 0.296194 17.7013 0.555364 18.1456 1.0737C18.5529 1.55501 18.775 2.33252 18.775 3.36919ZM27.6608 0C29.475 0 31.141 0.592388 32.696 1.81418C33.8808 2.77681 34.4732 3.77645 34.4732 4.81313C34.4732 5.66468 34.103 6.36814 33.3625 6.84945C32.9552 7.14564 32.5109 7.25672 31.9926 7.25672C31.5853 7.25672 31.2151 7.18267 30.8448 6.96052C30.6967 6.88647 30.3265 6.51623 29.7341 5.8498C29.1788 5.25742 28.4753 4.9242 27.6238 4.9242C26.8092 4.9242 26.1058 5.22039 25.5874 5.77575C25.0321 6.36814 24.7359 7.03457 24.7359 7.8491C24.7359 8.66363 25.0321 9.36709 25.5874 9.92245C26.1428 10.5148 26.8462 10.774 27.6238 10.774C28.2902 10.774 28.9196 10.5519 29.512 10.0705C29.8452 9.73732 30.2525 9.36709 30.5857 9.03387C30.9559 8.70065 31.4372 8.55256 32.0296 8.55256C32.696 8.55256 33.2884 8.7747 33.8068 9.25601C34.2881 9.7003 34.5472 10.2927 34.5472 10.9591C34.5472 11.8847 33.9919 12.8103 32.9182 13.7359C31.4002 15.0688 29.6971 15.6982 27.6978 15.6982C26.476 15.6982 25.3283 15.439 24.2175 14.9207C22.8476 14.2543 21.7739 13.2916 20.9594 12.0328C20.1449 10.774 19.7376 9.36708 19.7376 7.8491C19.7376 5.59063 20.5892 3.66538 22.2553 2.07335C23.7362 0.740483 25.5504 0.037024 27.6608 0ZM40.323 5.47956L43.0998 1.44394C43.6181 0.70346 44.3216 0.33322 45.1361 0.33322C45.8396 0.33322 46.3949 0.555364 46.9133 1.0737C47.3946 1.55501 47.6538 2.1474 47.6538 2.81383C47.6538 3.29514 47.5057 3.73943 47.2465 4.14669L44.7289 7.77505L47.8019 11.6626C48.1351 12.0328 48.2461 12.5141 48.2461 13.0325C48.2461 13.7359 48.024 14.2913 47.5057 14.8096C47.0244 15.2909 46.432 15.5501 45.7285 15.5501C44.988 15.5501 44.3956 15.328 43.9884 14.8096L40.323 10.1076V12.6992C40.323 13.4397 40.2119 13.9951 39.9528 14.4394C39.5085 15.1799 38.805 15.5501 37.9164 15.5501C37.1019 15.5501 36.4725 15.2909 36.0282 14.7356C35.6209 14.2543 35.3988 13.5508 35.3988 12.7363V3.073C35.3988 2.29549 35.5839 1.62906 36.0282 1.11072C36.5095 0.592385 37.1389 0.296194 37.9164 0.296194C38.6569 0.296194 39.2863 0.555361 39.8047 1.11072C40.1009 1.40691 40.2489 1.70311 40.323 1.9993C40.397 2.18442 40.397 2.55466 40.397 3.073V5.47956H40.323Z" fill="#B0B6BA"/>
<path d="M51.3932 9.73729C51.9486 9.73729 52.5039 9.95943 53.1703 10.4778C53.9479 11.0702 54.4662 11.3663 54.7624 11.3663C55.2067 11.3663 55.3918 11.1442 55.3918 10.6999C55.3918 10.4778 55.2807 10.2556 55.0216 10.1075C54.8735 10.0335 54.17 9.73729 52.8001 9.25597C50.6157 8.47847 49.505 7.07156 49.505 4.96119C49.505 3.36915 50.0973 2.11033 51.2451 1.22176C52.2818 0.444251 53.5406 0.0369873 55.0216 0.0369873C56.3174 0.0369873 57.4651 0.370204 58.3907 0.962588C59.3534 1.55497 59.8347 2.3695 59.8347 3.36915C59.8347 3.96154 59.6496 4.44285 59.2793 4.85011C58.9091 5.25738 58.4278 5.44249 57.8724 5.44249C57.28 5.44249 56.6136 5.14631 55.8361 4.59095C55.3918 4.25773 55.0215 4.03559 54.7994 4.03559C54.3921 4.03559 54.207 4.2207 54.207 4.62797C54.207 4.99821 54.6883 5.36845 55.725 5.62761C57.0949 6.0719 58.1686 6.59024 58.9091 7.21965C59.9087 8.0712 60.4271 9.21895 60.4271 10.6999C60.4271 12.366 59.8717 13.6248 58.761 14.5504C57.7243 15.402 56.3544 15.8092 54.6883 15.8092C53.0222 15.8092 51.6153 15.3649 50.5416 14.4764C49.6901 13.7359 49.2088 12.9584 49.2088 11.9958C49.2088 11.3663 49.3939 10.848 49.8382 10.4037C50.2084 9.95943 50.7638 9.73729 51.3932 9.73729ZM64.6108 4.99821H63.3149C62.5745 4.99821 61.9821 4.81309 61.5378 4.40583C61.0565 3.96154 60.7973 3.40617 60.7973 2.70272C60.7973 2.25843 60.9084 1.85116 61.1305 1.48092C61.3527 1.07366 61.6859 0.814489 62.0561 0.629369C62.4264 0.444248 63.3149 0.370201 64.7589 0.370201H69.7201C70.9419 0.370201 71.7564 0.444252 72.0896 0.592348C72.4969 0.777468 72.8301 1.03664 73.0523 1.4439C73.2744 1.85117 73.4225 2.25843 73.4225 2.70272C73.4225 3.40617 73.1633 3.96154 72.608 4.47987C72.2377 4.81309 71.6083 5.03523 70.6827 5.03523H69.572V12.4771C69.572 13.2916 69.4239 13.921 69.1647 14.3653C68.7204 15.1058 68.017 15.476 67.1284 15.476C66.2398 15.476 65.5734 15.1428 65.0921 14.4764C64.7959 14.0321 64.6478 13.4027 64.6478 12.5511V4.99821H64.6108ZM76.6066 13.4397C76.3844 13.9951 76.1623 14.4393 75.8661 14.6985C75.3848 15.2539 74.7554 15.513 74.0519 15.513C73.2004 15.513 72.4969 15.1798 72.0156 14.4764C71.7194 14.0691 71.5713 13.5878 71.5713 13.0695C71.5713 12.6252 71.6824 12.2179 71.9045 11.7736L76.6066 1.81414C77.0509 0.814493 77.8284 0.370201 78.9021 0.370201C79.9758 0.370201 80.7533 0.851516 81.1975 1.88819L85.9366 11.9217C86.1218 12.329 86.2328 12.7362 86.2328 13.1065C86.2328 13.6989 86.0477 14.2172 85.6404 14.6615C85.1591 15.2539 84.5297 15.5501 83.7152 15.5501C83.0858 15.5501 82.5674 15.3649 82.1231 14.9577C81.7899 14.6615 81.4938 14.1802 81.1605 13.5137L76.6066 13.4397ZM97.1179 9.58919L98.2656 11.4774C98.5989 11.9958 98.747 12.5141 98.747 13.0695C98.747 13.7729 98.5248 14.3283 98.0065 14.8096C97.5252 15.2539 96.9328 15.513 96.2293 15.513C95.3407 15.513 94.6743 15.1428 94.193 14.4023L92.1567 11.0331V13.0695C92.1567 13.7729 91.9345 14.3283 91.4532 14.8466C91.0089 15.3279 90.4165 15.5871 89.7131 15.5871C88.8615 15.5871 88.1951 15.2909 87.7878 14.6615C87.3806 14.1431 87.1954 13.4027 87.1954 12.5511V3.33213C87.1954 1.40687 88.1951 0.481275 90.2684 0.481275H93.4155C94.4522 0.481275 95.4148 0.777465 96.2663 1.36985C97.1549 1.96223 97.7843 2.73974 98.1916 3.66535C98.5248 4.40583 98.6359 5.10928 98.6359 5.84976C98.747 7.1456 98.1916 8.40442 97.1179 9.58919ZM103.005 4.99821H101.709C100.968 4.99821 100.376 4.81309 99.9317 4.40583C99.4504 3.96154 99.1912 3.40617 99.1912 2.70272C99.1912 2.25843 99.3023 1.85116 99.5245 1.48092C99.7466 1.07366 100.08 0.814489 100.45 0.629369C100.82 0.444248 101.709 0.370201 103.153 0.370201H108.114C109.336 0.370201 110.15 0.444252 110.484 0.592348C110.891 0.777468 111.224 1.03664 111.446 1.4439C111.668 1.85117 111.816 2.25843 111.816 2.70272C111.816 3.40617 111.557 3.96154 111.002 4.47987C110.632 4.81309 110.002 5.03523 109.077 5.03523H107.966V12.4771C107.966 13.2916 107.818 13.921 107.559 14.3653C107.114 15.1058 106.411 15.476 105.522 15.476C104.634 15.476 103.967 15.1428 103.486 14.4764C103.19 14.0321 103.042 13.4027 103.042 12.5511V4.99821H103.005ZM117.629 10.774H119.888C120.813 10.774 121.517 10.9591 121.961 11.3663C122.479 11.8106 122.776 12.403 122.776 13.1435C122.776 13.884 122.516 14.4764 121.961 14.9207C121.554 15.2539 120.85 15.439 119.925 15.439H116.074C115.186 15.439 114.556 15.3649 114.186 15.2539C113.52 14.9947 113.075 14.5134 112.89 13.921C112.742 13.5137 112.705 12.8843 112.705 11.9958V3.85047C112.705 3.14701 112.742 2.73974 112.779 2.48057C112.853 2.03628 113.038 1.62902 113.371 1.25878C113.705 0.888542 114.186 0.666397 114.704 0.518301C114.963 0.444253 115.482 0.444248 116.259 0.444248H119.221C120.036 0.444248 120.48 0.444251 120.628 0.481275C121.146 0.555323 121.591 0.666394 121.924 0.925562C122.516 1.36985 122.813 1.96224 122.813 2.70272C122.813 3.48022 122.553 4.07261 122.035 4.51689C121.591 4.88713 120.924 5.07225 120.11 5.07225H117.666V6.07191H119.591C120.184 6.07191 120.628 6.22 120.998 6.5162C121.406 6.84941 121.591 7.25667 121.591 7.84906C121.591 9.03383 120.85 9.62621 119.406 9.62621H117.629V10.774ZM133.476 9.58919L134.623 11.4774C134.956 11.9958 135.105 12.5141 135.105 13.0695C135.105 13.7729 134.882 14.3283 134.364 14.8096C133.883 15.2539 133.29 15.513 132.587 15.513C131.698 15.513 131.032 15.1428 130.551 14.4023L128.514 11.0331V13.0695C128.514 13.7729 128.292 14.3283 127.811 14.8466C127.367 15.3279 126.774 15.5871 126.071 15.5871C125.219 15.5871 124.553 15.2909 124.145 14.6615C123.738 14.1431 123.553 13.4027 123.553 12.5511V3.33213C123.553 1.40687 124.553 0.481275 126.626 0.481275H129.773C130.81 0.481275 131.772 0.777465 132.624 1.36985C133.513 1.96223 134.142 2.73974 134.549 3.66535C134.882 4.40583 134.993 5.10928 134.993 5.84976C135.105 7.1456 134.549 8.40442 133.476 9.58919Z" fill="#B0B6BA"/>
</svg>
