<svg width="32" height="19" viewBox="0 0 32 19" fill="none" xmlns="http://www.w3.org/2000/svg">
<path d="M29.1926 0H2.28777C1.14476 0 0.21817 0.937985 0.21817 2.09505V16.7604C0.21817 17.9174 1.14476 18.8554 2.28777 18.8554H29.1926C30.3356 18.8554 31.2622 17.9174 31.2622 16.7604V2.09505C31.2622 0.937985 30.3356 0 29.1926 0Z" fill="#000066"/>
<path fill-rule="evenodd" clip-rule="evenodd" d="M17.6426 9.58025C17.6426 12.9674 14.9304 15.7128 11.5845 15.7128C8.23845 15.7128 5.52605 12.9674 5.52605 9.58025C5.52605 6.1932 8.23845 3.44745 11.5845 3.44745C14.9304 3.44745 17.6426 6.1932 17.6426 9.58025Z" fill="#CC0000"/>
<path fill-rule="evenodd" clip-rule="evenodd" d="M19.718 3.44745C18.1522 3.44745 16.7261 4.04862 15.6508 5.03485C15.432 5.23585 15.2278 5.45295 15.0393 5.68409H16.2633C16.4305 5.89014 16.5845 6.10675 16.7251 6.33363H14.5773C14.4488 6.5421 14.332 6.75871 14.2283 6.98317H17.074C17.1713 7.19338 17.2569 7.40989 17.3306 7.63241H13.9717C13.9018 7.84389 13.8428 8.06059 13.7957 8.28156H17.5064C17.5952 8.70024 17.6425 9.13462 17.6425 9.58025C17.6425 10.2611 17.5329 10.9164 17.3306 11.5285H13.9717C14.0454 11.7508 14.131 11.9676 14.2281 12.1781H17.074C16.97 12.402 16.8538 12.6188 16.7246 12.8275H14.5773C14.7174 13.0537 14.8717 13.2706 15.0393 13.4764H16.2629C16.0748 13.7077 15.8704 13.9248 15.6509 14.1258C16.7262 15.1121 18.1522 15.7128 19.718 15.7128C23.0638 15.7128 25.7761 12.9674 25.7761 9.58025C25.7761 6.19349 23.0638 3.44745 19.718 3.44745Z" fill="#FF9900"/>
<path fill-rule="evenodd" clip-rule="evenodd" d="M10.17 10.2517C10.1009 10.2438 10.0705 10.2413 10.0231 10.2413C9.6503 10.2413 9.46179 10.3708 9.46179 10.6265C9.46179 10.784 9.55379 10.8841 9.6974 10.8841C9.96538 10.8841 10.1585 10.6259 10.17 10.2517ZM10.6484 11.379H10.1032L10.1158 11.1168C9.94958 11.3238 9.72775 11.4227 9.42646 11.4227C9.07012 11.4227 8.82569 11.1411 8.82569 10.7318C8.82569 10.1157 9.25068 9.7564 9.98031 9.7564C10.0551 9.7564 10.1506 9.76338 10.2485 9.77588C10.2688 9.69234 10.2741 9.65687 10.2741 9.6118C10.2741 9.44433 10.1596 9.38153 9.8524 9.38153C9.53062 9.37823 9.26523 9.45935 9.15619 9.4956C9.16308 9.45354 9.24742 8.9266 9.24742 8.9266C9.57505 8.8291 9.79123 8.79266 10.0345 8.79266C10.5994 8.79266 10.8986 9.0493 10.8979 9.53446C10.899 9.66462 10.8777 9.82463 10.8447 10.0357C10.7876 10.4021 10.665 11.1878 10.6484 11.379Z" fill="#000066"/>
<path fill-rule="evenodd" clip-rule="evenodd" d="M8.5502 11.3789H7.89237L8.2694 8.9878L7.42794 11.3789H6.97978L6.92435 9.00117L6.52837 11.3789H5.91277L6.42698 8.26819H7.37279L7.42995 10.0094L8.00697 8.26819H9.05886L8.5502 11.3789Z" fill="#000066"/>
<path fill-rule="evenodd" clip-rule="evenodd" d="M20.5307 10.2517C20.4617 10.2438 20.4316 10.2413 20.3843 10.2413C20.0112 10.2413 19.8229 10.3708 19.8229 10.6265C19.8229 10.784 19.9145 10.8841 20.0585 10.8841C20.3263 10.8841 20.5195 10.6259 20.5307 10.2517ZM21.0094 11.379H20.4645L20.4768 11.1168C20.3106 11.3238 20.0889 11.4227 19.7878 11.4227C19.431 11.4227 19.1868 11.1411 19.1868 10.7318C19.1868 10.1157 19.612 9.7564 20.3414 9.7564C20.4161 9.7564 20.5115 9.76338 20.6094 9.77588C20.6298 9.69234 20.6351 9.65687 20.6351 9.6118C20.6351 9.44433 20.5206 9.38153 20.2133 9.38153C19.8916 9.37823 19.6263 9.45935 19.5168 9.4956C19.5241 9.45354 19.6086 8.9266 19.6086 8.9266C19.9361 8.8291 20.1524 8.79266 20.3953 8.79266C20.9606 8.79266 21.2594 9.0493 21.2588 9.53446C21.26 9.66462 21.2388 9.82463 21.2056 10.0357C21.1487 10.4021 21.0259 11.1878 21.0094 11.379Z" fill="#000066"/>
<path fill-rule="evenodd" clip-rule="evenodd" d="M13.571 11.3404C13.3909 11.3978 13.2506 11.4226 13.0984 11.4226C12.7623 11.4226 12.5787 11.2271 12.5787 10.8668C12.574 10.755 12.6271 10.4608 12.6688 10.1926C12.7069 9.95618 12.9541 8.46619 12.9541 8.46619H13.6077L13.5314 8.8491H13.9264L13.8372 9.45716H13.441C13.365 9.93816 13.2568 10.5375 13.2555 10.617C13.2555 10.7474 13.3242 10.8044 13.4808 10.8044C13.5557 10.8044 13.6138 10.7966 13.6581 10.7806L13.571 11.3404Z" fill="#000066"/>
<path fill-rule="evenodd" clip-rule="evenodd" d="M15.5757 11.3201C15.3511 11.3895 15.1347 11.4235 14.905 11.4227C14.1731 11.4217 13.7915 11.035 13.7915 10.2941C13.7915 9.42941 14.2768 8.79266 14.9358 8.79266C15.4747 8.79266 15.8191 9.14912 15.8191 9.70795C15.8191 9.89373 15.7956 10.0748 15.7384 10.3302H14.4365C14.3926 10.6973 14.6245 10.8501 15.005 10.8501C15.2387 10.8501 15.4499 10.8013 15.6846 10.6911L15.5757 11.3201ZM15.2083 9.82037C15.212 9.76755 15.2775 9.36874 14.9038 9.36874C14.6959 9.36874 14.5468 9.52942 14.4864 9.82037H15.2083Z" fill="#000066"/>
<path fill-rule="evenodd" clip-rule="evenodd" d="M11.0429 9.64902C11.0429 9.96875 11.196 10.1894 11.5436 10.3553C11.8098 10.4821 11.8513 10.5196 11.8513 10.6345C11.8513 10.792 11.7337 10.8635 11.4736 10.8635C11.2772 10.8635 11.0947 10.8323 10.8842 10.7634C10.8842 10.7634 10.798 11.3212 10.7938 11.3479C10.9433 11.3806 11.0766 11.4112 11.4783 11.4227C12.1722 11.4227 12.4927 11.1552 12.4927 10.5771C12.4927 10.2296 12.3587 10.0255 12.0292 9.87203C11.7535 9.744 11.7217 9.71531 11.7217 9.59727C11.7217 9.46052 11.8311 9.39064 12.0435 9.39064C12.1727 9.39064 12.3489 9.4046 12.5162 9.42853L12.6097 8.8418C12.4395 8.81437 12.1812 8.79266 12.0309 8.79266C11.2952 8.79266 11.0405 9.18159 11.0429 9.64902Z" fill="#000066"/>
<path fill-rule="evenodd" clip-rule="evenodd" d="M18.7741 8.85936C18.9568 8.85936 19.1274 8.90743 19.3618 9.02731L19.4696 8.35219C19.3729 8.31381 19.0338 8.08887 18.7466 8.08887C18.3066 8.08887 17.9342 8.31022 17.6727 8.67473C17.2909 8.5468 17.1338 8.80537 16.9416 9.06317L16.7707 9.10349C16.7836 9.01869 16.7954 8.93447 16.7916 8.84908H16.1873C16.105 9.63227 15.9588 10.4252 15.8444 11.2087L15.8144 11.3789H16.4724C16.5822 10.6565 16.6423 10.1941 16.6788 9.88086L16.9266 9.74188C16.9639 9.60222 17.0794 9.55532 17.3119 9.56103C17.2815 9.72599 17.2651 9.89976 17.2651 10.0795C17.2651 10.9073 17.7068 11.4226 18.4145 11.4226C18.5969 11.4226 18.7535 11.3984 18.996 11.3315L19.1113 10.6227C18.8932 10.7311 18.7146 10.7822 18.5528 10.7822C18.1704 10.7822 17.939 10.4964 17.939 10.0243C17.939 9.33919 18.2829 8.85936 18.7741 8.85936Z" fill="#000066"/>
<path fill-rule="evenodd" clip-rule="evenodd" d="M24.3426 8.26819L24.1964 9.1669C24.0169 8.92742 23.8237 8.75394 23.5686 8.75394C23.2368 8.75394 22.9347 9.00863 22.7369 9.3837C22.4615 9.32584 22.1768 9.22747 22.1768 9.22747L22.1766 9.22989C22.1986 9.02026 22.2079 8.89272 22.2057 8.84911H21.6014C21.5194 9.63229 21.373 10.4253 21.2587 11.2087L21.2284 11.3789H21.8867C21.9755 10.7951 22.0434 10.3097 22.0934 9.92537C22.3184 9.71952 22.431 9.54051 22.6578 9.55214C22.5572 9.7985 22.4985 10.0821 22.4985 10.373C22.4985 11.0052 22.8143 11.4226 23.2926 11.4226C23.5337 11.4226 23.7186 11.3384 23.899 11.1434L23.868 11.3787H24.4903L24.9913 8.26819H24.3426ZM23.5201 10.7945C23.2962 10.7945 23.1829 10.6265 23.1829 10.2958C23.1829 9.7985 23.3947 9.44602 23.693 9.44602C23.919 9.44602 24.0416 9.62008 24.0416 9.94146C24.0416 10.443 23.8261 10.7945 23.5201 10.7945Z" fill="#000066"/>
<path fill-rule="evenodd" clip-rule="evenodd" d="M8.73965 11.1942H8.08201L8.45894 8.80312L7.61767 11.1942H7.16932L7.11398 8.81698L6.71791 11.1942H6.1023L6.61652 8.0838H7.56233L7.58876 10.0093L8.22696 8.0838H9.24841L8.73965 11.1942Z" fill="white"/>
<path fill-rule="evenodd" clip-rule="evenodd" d="M10.3589 10.0675C10.2899 10.0594 10.2595 10.0571 10.2121 10.0571C9.83928 10.0571 9.65068 10.1864 9.65068 10.442C9.65068 10.5993 9.74278 10.7 9.88648 10.7C10.1544 10.7 10.3475 10.4418 10.3589 10.0675ZM10.8372 11.1944H10.2923L10.3048 10.9324C10.1386 11.1393 9.91674 11.2383 9.61545 11.2383C9.25901 11.2383 9.01468 10.9562 9.01468 10.547C9.01468 9.93085 9.43976 9.57206 10.1694 9.57206C10.244 9.57206 10.3395 9.57894 10.4375 9.59174C10.4578 9.508 10.4631 9.47243 10.4631 9.42717C10.4631 9.2598 10.3486 9.19748 10.0414 9.19748C9.71951 9.1936 9.45422 9.27472 9.34508 9.31087C9.35207 9.269 9.43632 8.74207 9.43632 8.74207C9.76403 8.64476 9.98021 8.60803 10.2235 8.60803C10.7883 8.60803 11.0873 8.86496 11.0869 9.34993C11.0879 9.4799 11.0668 9.64068 11.0336 9.85118C10.9765 10.2172 10.8539 11.0034 10.8372 11.1944Z" fill="white"/>
<path fill-rule="evenodd" clip-rule="evenodd" d="M19.6586 8.16754L19.5509 8.84257C19.3161 8.72307 19.1459 8.67471 18.9635 8.67471C18.4724 8.67471 18.1279 9.15512 18.1279 9.84033C18.1279 10.3124 18.3594 10.5976 18.7418 10.5976C18.9038 10.5976 19.0828 10.5469 19.3004 10.4381L19.1848 11.147C18.9427 11.2137 18.786 11.2382 18.6037 11.2382C17.8955 11.2382 17.4544 10.7228 17.4544 9.89518C17.4544 8.78316 18.0642 8.00598 18.9358 8.00598C19.223 8.00598 19.5622 8.12916 19.6586 8.16754Z" fill="white"/>
<path fill-rule="evenodd" clip-rule="evenodd" d="M20.7202 10.0675C20.6517 10.0594 20.6212 10.0571 20.5739 10.0571C20.2012 10.0571 20.0125 10.1864 20.0125 10.442C20.0125 10.5993 20.1045 10.7 20.2482 10.7C20.5159 10.7 20.7092 10.4418 20.7202 10.0675ZM21.1989 11.1944H20.6541L20.6664 10.9324C20.5002 11.1393 20.2784 11.2383 19.9774 11.2383C19.6206 11.2383 19.3765 10.9562 19.3765 10.547C19.3765 9.93085 19.8012 9.57206 20.5311 9.57206C20.6056 9.57206 20.701 9.57894 20.7988 9.59174C20.8192 9.508 20.8246 9.47243 20.8246 9.42717C20.8246 9.2598 20.7104 9.19748 20.403 9.19748C20.0814 9.1936 19.8162 9.27472 19.7068 9.31087C19.7137 9.269 19.7981 8.74207 19.7981 8.74207C20.1258 8.64476 20.3418 8.60803 20.5851 8.60803C21.1498 8.60803 21.4492 8.86496 21.4484 9.34993C21.4498 9.4799 21.4284 9.64068 21.3953 9.85118C21.3383 10.2172 21.2158 11.0034 21.1989 11.1944Z" fill="white"/>
<path fill-rule="evenodd" clip-rule="evenodd" d="M13.7605 11.1559C13.5806 11.2133 13.4402 11.2382 13.2881 11.2382C12.9519 11.2382 12.7683 11.0425 12.7683 10.6827C12.7637 10.5705 12.8168 10.2768 12.8586 10.0082C12.8965 9.77167 13.1438 8.28186 13.1438 8.28186H13.7976L13.7211 8.66468H14.0567L13.9673 9.27254H13.6306C13.5547 9.75403 13.4464 10.353 13.445 10.4324C13.445 10.5633 13.5141 10.6199 13.6704 10.6199C13.7454 10.6199 13.8033 10.6124 13.8478 10.5959L13.7605 11.1559Z" fill="white"/>
<path fill-rule="evenodd" clip-rule="evenodd" d="M15.765 11.1359C15.5403 11.2056 15.3233 11.2385 15.0939 11.2383C14.3619 11.2378 13.9807 10.8506 13.9807 10.1098C13.9807 9.24477 14.4659 8.60803 15.1244 8.60803C15.6639 8.60803 16.0081 8.96449 16.0081 9.52399C16.0081 9.70939 15.9841 9.89034 15.9276 10.1459H14.6256C14.5815 10.5129 14.8136 10.6661 15.1938 10.6661C15.4277 10.6661 15.6388 10.617 15.8737 10.5065L15.765 11.1359ZM15.3974 9.63574C15.401 9.58282 15.4668 9.1842 15.0932 9.1842C14.885 9.1842 14.736 9.34518 14.6754 9.63574H15.3974Z" fill="white"/>
<path fill-rule="evenodd" clip-rule="evenodd" d="M11.2318 9.46439C11.2318 9.7847 11.3852 10.0049 11.7328 10.1709C11.9991 10.2977 12.0404 10.3352 12.0404 10.4501C12.0404 10.6078 11.9229 10.6789 11.6626 10.6789C11.4664 10.6789 11.2838 10.6481 11.0732 10.5794C11.0732 10.5794 10.987 11.1369 10.983 11.1631C11.1324 11.1963 11.2657 11.2265 11.6673 11.2383C12.3614 11.2383 12.6819 10.9709 12.6819 10.3928C12.6819 10.045 12.5477 9.8411 12.2182 9.68798C11.9425 9.55956 11.9108 9.53116 11.9108 9.41293C11.9108 9.27618 12.0201 9.20582 12.2328 9.20582C12.3617 9.20582 12.5381 9.22035 12.7053 9.24419L12.7989 8.65756C12.6286 8.63032 12.3705 8.60803 12.2201 8.60803C11.4842 8.60803 11.2296 8.99706 11.2318 9.46439Z" fill="white"/>
<path fill-rule="evenodd" clip-rule="evenodd" d="M24.6799 11.1942H24.0578L24.0886 10.9588C23.9081 11.1539 23.7232 11.2382 23.4822 11.2382C23.0042 11.2382 22.688 10.8212 22.688 10.1883C22.688 9.34692 23.1783 8.63768 23.7582 8.63768C24.0132 8.63768 24.2063 8.74313 24.3862 8.9827L24.5321 8.0838H25.1808L24.6799 11.1942ZM23.7096 10.6097C24.016 10.6097 24.231 10.2584 24.231 9.75736C24.231 9.43589 24.1086 9.26124 23.8826 9.26124C23.5842 9.26124 23.3725 9.61383 23.3725 10.1113C23.3725 10.4424 23.4859 10.6097 23.7096 10.6097Z" fill="white"/>
<path fill-rule="evenodd" clip-rule="evenodd" d="M21.7913 8.66467C21.709 9.44766 21.5627 10.2406 21.4483 11.0242L21.4183 11.1943H22.0762C22.3115 9.64731 22.3681 9.34541 22.7373 9.38311C22.7959 9.06649 22.9054 8.78921 22.9869 8.64945C22.7114 8.5913 22.5576 8.74889 22.3559 9.04836C22.372 8.91879 22.401 8.79309 22.3956 8.66467H21.7913Z" fill="white"/>
<path fill-rule="evenodd" clip-rule="evenodd" d="M16.3772 8.66467C16.2945 9.44766 16.148 10.2406 16.0338 11.0242L16.004 11.1943H16.662C16.8974 9.64731 16.9538 9.34541 17.3224 9.38311C17.3815 9.06649 17.4911 8.78921 17.5724 8.64945C17.2972 8.5913 17.1431 8.74889 16.9418 9.04836C16.9577 8.91879 16.9869 8.79309 16.9812 8.66467H16.3772Z" fill="white"/>
</svg>
