<svg width="269" height="125" viewBox="0 0 269 125" fill="none" xmlns="http://www.w3.org/2000/svg">
<g clip-path="url(#clip0)">
<g opacity="0.8">
<g opacity="0.7">
<g opacity="0.7">
<path fill-rule="evenodd" clip-rule="evenodd" d="M82.4612 55.0348C88.884 52.0902 95.3728 49.1063 100.932 44.775C106.492 40.4437 111.118 34.5727 112.545 27.7234C114.195 19.7961 104.564 -2.26758 94.4294 9.11953C88.3187 15.9859 98.9434 24.7586 104.187 28.159C110.585 32.3078 118.401 34.3484 126.039 33.918C137.23 33.2879 160.798 24.3117 160.917 10.4242C160.946 7.06758 158.5 4.05937 155.499 2.48164C131.418 -10.1793 133.442 25.4871 133.911 38.2484C134.505 54.3969 132.388 70.6391 127.675 86.1133C124.766 95.6652 120.746 105.126 113.966 112.52C110.194 116.634 105.499 120.021 100.261 122.08C96.6031 123.518 90.8936 125.943 86.9555 124.284C82.5633 122.434 81.4667 115.668 82.3062 111.441C85.0409 97.6703 103.175 97.5176 114.245 98.0813C130.476 98.9078 146.865 102.347 162.825 99.3191" fill="#009EFF" fill-opacity="0.06"/>
<path d="M82.4612 55.0348C88.884 52.0902 95.3728 49.1063 100.932 44.775C106.492 40.4438 111.118 34.5727 112.545 27.7234C114.195 19.7961 104.564 -2.26758 94.4294 9.11953C88.3187 15.9859 98.9434 24.7586 104.187 28.159C110.585 32.3078 118.401 34.3484 126.039 33.918C137.23 33.2879 160.798 24.3117 160.917 10.4242C160.946 7.06758 158.5 4.05937 155.499 2.48164C131.418 -10.1793 133.442 25.4871 133.911 38.2484C134.505 54.3969 132.388 70.6391 127.675 86.1133C124.766 95.6652 120.746 105.126 113.966 112.52C110.194 116.634 105.499 120.021 100.261 122.08C96.6031 123.518 90.8936 125.943 86.9555 124.284C82.5633 122.434 81.4667 115.668 82.3062 111.441C85.0409 97.6703 103.175 97.5176 114.245 98.0813C130.476 98.9078 146.865 102.347 162.825 99.3191" stroke="#009EFF" stroke-opacity="0.4"/>
</g>
<g opacity="0.7">
<path fill-rule="evenodd" clip-rule="evenodd" d="M204.755 67.7607C214.944 61.5423 238.762 64.6146 249.044 66.1888C256.28 67.297 266.945 65.7353 268.551 57.0755C271.092 43.3826 249.112 36.2912 238.649 36.6009C224.648 37.0158 213.94 48.3216 202.607 56.4517C187.631 67.1947 169.188 73.1474 150.678 73.2115C129.95 73.2833 111.034 64.6787 94.0899 53.1697C78.7158 42.7275 59.1532 26.8798 42.2576 45.0458C39.1918 48.3423 36.2712 52.5185 36.5683 57.2064C36.7815 60.5712 39.0767 63.9376 42.4139 64.6509C45.751 65.3638 49.6104 62.5681 49.2678 59.2134C48.943 56.0294 45.5449 54.1119 42.4328 53.2205C31.5874 50.1138 13.831 56.2056 6.35718 45.2689" fill="#009EFF" fill-opacity="0.06"/>
<path d="M204.755 67.7607C214.944 61.5423 238.762 64.6146 249.044 66.1888C256.28 67.297 266.945 65.7353 268.551 57.0755C271.092 43.3826 249.112 36.2912 238.649 36.6009C224.648 37.0158 213.94 48.3216 202.607 56.4517C187.631 67.1947 169.188 73.1474 150.678 73.2115C129.95 73.2833 111.034 64.6787 94.0899 53.1697C78.7158 42.7275 59.1532 26.8798 42.2576 45.0458C39.1918 48.3423 36.2712 52.5185 36.5683 57.2064C36.7815 60.5712 39.0767 63.9376 42.4139 64.6509C45.751 65.3638 49.6104 62.5681 49.2678 59.2134C48.943 56.0294 45.5449 54.1119 42.4328 53.2205C31.5874 50.1138 13.831 56.2056 6.35718 45.2689" stroke="#009EFF" stroke-opacity="0.4"/>
</g>
<g opacity="0.7">
<path fill-rule="evenodd" clip-rule="evenodd" d="M150.736 52.3901C153.986 52.6904 157.37 52.0096 160.082 50.2162C162.131 48.8612 163.891 46.7233 164.666 44.3436C165.146 42.8756 165.121 41.0147 164.807 39.5209C164.578 38.4326 162.658 35.2217 161.465 37.5268C159.707 40.9229 168.122 39.0791 169.144 38.7928C176.141 36.835 180.042 31.3065 182.76 24.9752" fill="#009EFF" fill-opacity="0.06"/>
<path d="M150.736 52.3901C153.986 52.6904 157.37 52.0096 160.082 50.2162C162.131 48.8612 163.891 46.7233 164.666 44.3436C165.146 42.8756 165.121 41.0147 164.807 39.5209C164.578 38.4326 162.658 35.2217 161.465 37.5268C159.707 40.9229 168.122 39.0791 169.144 38.7928C176.141 36.835 180.042 31.3065 182.76 24.9752" stroke="#009EFF" stroke-opacity="0.4"/>
</g>
<path opacity="0.7" fill-rule="evenodd" clip-rule="evenodd" d="M183.096 17.6927L182.327 20.0505L184.01 21.8868L186.462 21.3661L187.231 19.0083L185.548 17.172L183.096 17.6927Z" fill="#009EFF" fill-opacity="0.5"/>
<path opacity="0.7" fill-rule="evenodd" clip-rule="evenodd" d="M181.056 18.1165L180.416 20.0763L181.815 21.6032L183.854 21.1697L184.493 19.2103L183.094 17.6837L181.056 18.1165Z" fill="#009EFF" fill-opacity="0.5"/>
<path opacity="0.7" fill-rule="evenodd" clip-rule="evenodd" d="M185.197 19.4486L184.558 21.4068L185.956 22.9322L187.993 22.4997L188.632 20.5411L187.234 19.0157L185.197 19.4486Z" fill="#009EFF" fill-opacity="0.5"/>
<path opacity="0.7" fill-rule="evenodd" clip-rule="evenodd" d="M168.037 95.2375L165.799 96.3571L165.662 98.8301L167.763 100.184L170 99.0645L170.138 96.5915L168.037 95.2375Z" fill="#009EFF" fill-opacity="0.5"/>
<path opacity="0.7" fill-rule="evenodd" clip-rule="evenodd" d="M166.296 94.1041L164.436 95.035L164.322 97.0908L166.068 98.2162L167.928 97.2858L168.042 95.2299L166.296 94.1041Z" fill="#009EFF" fill-opacity="0.5"/>
<path opacity="0.7" fill-rule="evenodd" clip-rule="evenodd" d="M168.253 97.9475L166.394 98.8772L166.28 100.932L168.025 102.056L169.884 101.126L169.997 99.0717L168.253 97.9475Z" fill="#009EFF" fill-opacity="0.5"/>
<path opacity="0.7" fill-rule="evenodd" clip-rule="evenodd" d="M1.17456 41.3519L2.73041 43.2952L5.21233 42.9362L6.1384 40.6343L4.58295 38.6909L2.10063 39.0499L1.17456 41.3519Z" fill="#009EFF" fill-opacity="0.5"/>
<path opacity="0.7" fill-rule="evenodd" clip-rule="evenodd" d="M0.395264 43.2615L1.68844 44.8768L3.75183 44.5783L4.52164 42.665L3.22847 41.0498L1.16547 41.3482L0.395264 43.2615Z" fill="#009EFF" fill-opacity="0.5"/>
<path opacity="0.7" fill-rule="evenodd" clip-rule="evenodd" d="M3.8208 40.6045L5.11279 42.2186L7.1746 41.9206L7.94362 40.0088L6.65163 38.3948L4.59022 38.6924L3.8208 40.6045Z" fill="#009EFF" fill-opacity="0.5"/>
</g>
</g>
</g>
<path fill-rule="evenodd" clip-rule="evenodd" d="M146.604 56.0648V58.2987H121.878V56.0648C121.878 54.8317 123.109 53.8311 124.626 53.8311H143.856C145.373 53.8311 146.604 54.8317 146.604 56.0648Z" fill="#FF9430"/>
<path fill-rule="evenodd" clip-rule="evenodd" d="M142.483 52.1125H125.999V49.8777C125.999 48.644 127.23 47.6448 128.747 47.6448H139.735C141.254 47.6448 142.483 48.644 142.483 49.8777V52.1125Z" fill="#FF9430"/>
<path fill-rule="evenodd" clip-rule="evenodd" d="M142.483 72.7327V74.9664C142.483 76.1997 141.254 77.2004 139.735 77.2004H128.747C127.23 77.2004 125.999 76.1997 125.999 74.9664V72.7327H142.483Z" fill="#FF9430"/>
<path fill-rule="evenodd" clip-rule="evenodd" d="M146.604 66.5469V68.7816C146.604 70.0154 145.373 71.0146 143.856 71.0146H124.626C123.109 71.0146 121.878 70.0154 121.878 68.7816V66.5469H146.604Z" fill="#FF9430"/>
<path fill-rule="evenodd" clip-rule="evenodd" d="M148.117 64.8281H120.365C118.925 64.8281 117.757 63.751 117.757 62.4223C117.757 61.0938 118.925 60.0167 120.365 60.0167H148.117C149.557 60.0167 150.724 61.0938 150.724 62.4223C150.724 63.751 149.557 64.8281 148.117 64.8281ZM137.233 64.828H131.464V62.472C131.464 61.1714 133.128 60.0166 133.658 60.0166H135.039C135.571 60.0166 137.233 61.1714 137.233 62.472V64.828Z" fill="#FF9430"/>
<defs>
<clipPath id="clip0">
<rect width="269" height="125" fill="white"/>
</clipPath>
</defs>
</svg>
