<svg width="32" height="19" viewBox="0 0 32 19" fill="none" xmlns="http://www.w3.org/2000/svg">
<path d="M28.9744 0H2.0696C0.926592 0 0 0.937985 0 2.09505V16.7604C0 17.9174 0.926592 18.8554 2.0696 18.8554H28.9744C30.1174 18.8554 31.044 17.9174 31.044 16.7604V2.09505C31.044 0.937985 30.1174 0 28.9744 0Z" fill="#26337A"/>
<path fill-rule="evenodd" clip-rule="evenodd" d="M12.8802 12.4278L13.8347 6.43365H15.3605L14.4061 12.4278H12.8802Z" fill="#FFFFFE"/>
<path fill-rule="evenodd" clip-rule="evenodd" d="M19.9405 6.58084C19.6388 6.46054 19.1643 6.32935 18.5733 6.32935C17.0648 6.32935 16.0029 7.14279 15.9941 8.30757C15.9845 9.16917 16.7518 9.64967 17.3303 9.93604C17.9249 10.2296 18.1246 10.4174 18.1223 10.6799C18.1182 11.0814 17.6477 11.2653 17.209 11.2653C16.5982 11.2653 16.2736 11.1748 15.7718 10.951L15.5756 10.8555L15.3622 12.1973C15.718 12.3642 16.3776 12.5091 17.0621 12.5168C18.6653 12.5168 19.707 11.7131 19.7192 10.4693C19.7247 9.78609 19.3181 9.26823 18.4376 8.84066C17.9044 8.5627 17.5771 8.37857 17.5809 8.09724C17.5812 7.84814 17.8573 7.58142 18.4549 7.58142C18.954 7.57327 19.3153 7.68995 19.5968 7.81175L19.7338 7.88027L19.9405 6.58084Z" fill="#FFFFFE"/>
<path fill-rule="evenodd" clip-rule="evenodd" d="M21.9718 10.3028C22.0982 9.95823 22.5796 8.62729 22.5796 8.62729C22.5707 8.64313 22.7053 8.2801 22.7824 8.05543L22.8854 8.5724C22.8854 8.5724 23.1781 10.0031 23.2384 10.3028H21.9718ZM23.8541 6.43988H22.675C22.3092 6.43988 22.0355 6.54593 21.8752 6.93676L19.6094 12.4301H21.2119C21.2119 12.4301 21.4734 11.6911 21.5327 11.5289C21.7075 11.5289 23.2647 11.532 23.487 11.532C23.5327 11.7412 23.6728 12.4301 23.6728 12.4301H25.0889L23.8541 6.43988Z" fill="#FFFFFE"/>
<path fill-rule="evenodd" clip-rule="evenodd" d="M11.6 6.43872L10.1066 10.5253L9.94667 9.6946C9.66838 8.73749 8.80209 7.70009 7.83308 7.18028L9.19932 12.4226L10.8141 12.4216L13.2169 6.43872H11.6Z" fill="#FFFFFE"/>
<path fill-rule="evenodd" clip-rule="evenodd" d="M8.72073 6.43469H6.26025L6.24001 6.55889C8.15455 7.05542 9.42131 8.25393 9.94709 9.69465L9.41241 6.94043C9.32017 6.56057 9.05208 6.44797 8.72073 6.43469Z" fill="#EC982D"/>
</svg>
