<svg width="114" height="24" viewBox="0 0 114 24" fill="none" xmlns="http://www.w3.org/2000/svg">
<g id="Wired">
<path id="Fill 1" fill-rule="evenodd" clip-rule="evenodd" d="M34.0751 19.8398C35.7979 19.8398 37.5207 19.8351 39.2434 19.8454C39.4805 19.8469 39.5423 19.782 39.5386 19.5498C39.5265 18.7921 39.5329 18.0339 39.546 17.2762C39.5496 17.0708 39.4938 17.0063 39.2781 17.0081C38.1579 17.0173 37.0375 17.0024 35.9173 17.0122C35.7005 17.0141 35.6595 16.9537 35.66 16.7475C35.6674 13.4533 35.6684 10.1592 35.6584 6.86494C35.6578 6.62637 35.7388 6.59779 35.9427 6.59913C37.063 6.60643 38.1834 6.59655 39.3036 6.60441C39.4909 6.6057 39.5442 6.55331 39.5417 6.36932C39.531 5.58341 39.5273 4.79728 39.5376 4.01142C39.5403 3.80672 39.4694 3.76589 39.2794 3.76617C35.7961 3.77117 32.3128 3.77117 28.8295 3.76617C28.6469 3.76589 28.5899 3.8125 28.5924 3.99918C28.6027 4.78515 28.6032 5.57145 28.5922 6.35736C28.5894 6.55449 28.646 6.60621 28.8436 6.60469C29.9732 6.59605 31.1031 6.60615 32.2328 6.59902C32.4159 6.59784 32.4675 6.64564 32.4672 6.83052C32.4615 10.1434 32.4611 13.4562 32.4679 16.7691C32.4684 16.973 32.4051 17.0122 32.2146 17.0109C31.0944 17.0031 29.974 17.0152 28.8537 17.004C28.6359 17.0018 28.5887 17.0657 28.592 17.2703C28.6044 18.0375 28.608 18.8052 28.5923 19.5722C28.5876 19.8045 28.666 19.8453 28.8784 19.8443C30.6106 19.8364 32.3429 19.8398 34.0751 19.8398ZM78.73 19.8333C80.9144 19.8333 83.0988 19.8301 85.2831 19.8383C85.4974 19.8391 85.5477 19.7793 85.5468 19.5723C85.5396 17.8876 85.5407 16.2027 85.5507 14.5181C85.5519 14.3134 85.5085 14.2459 85.2914 14.2496C84.4724 14.2636 83.6531 14.2643 82.8341 14.2527C82.6245 14.2497 82.5896 14.3246 82.5919 14.5097C82.6014 15.249 82.5886 15.9886 82.6004 16.7278C82.6037 16.9367 82.5649 17.0141 82.3292 17.0128C80.7097 17.0033 79.0901 17.0066 77.4707 17.019C77.2542 17.0206 77.2046 16.9591 77.2054 16.7537C77.2101 15.5558 77.208 14.3577 77.1899 13.16C77.1864 12.9241 77.2694 12.8902 77.4767 12.8916C78.7007 12.9002 79.9249 12.891 81.1488 12.9005C81.3604 12.9022 81.4371 12.862 81.4315 12.6309C81.4144 11.92 81.4157 11.2082 81.4309 10.4972C81.4357 10.2711 81.389 10.1991 81.1445 10.2019C79.9112 10.2162 78.6776 10.2043 77.4442 10.2127C77.2515 10.2141 77.1893 10.1697 77.1912 9.96819C77.2017 8.92001 77.1997 7.8716 77.1926 6.82336C77.1915 6.6555 77.2328 6.59866 77.4107 6.59934C79.0208 6.60585 80.631 6.6054 82.241 6.59973C82.4006 6.59917 82.4458 6.64264 82.4436 6.8014C82.4349 7.45646 82.4484 8.11191 82.4349 8.7668C82.4307 8.97027 82.4972 9.01346 82.6893 9.01093C83.4801 9.00054 84.2713 8.99869 85.062 9.01166C85.2824 9.01531 85.3465 8.95797 85.3449 8.73361C85.3334 7.17066 85.3312 5.60749 85.3412 4.04454C85.3427 3.81355 85.2681 3.77199 85.056 3.7721C82.1561 3.77446 79.2562 3.76637 76.3563 3.76502C74.9723 3.76435 73.5882 3.77805 72.2043 3.77081C71.9751 3.76963 71.9256 3.84084 71.9288 4.05375C71.9401 4.82107 71.9373 5.58873 71.9277 6.35611C71.9254 6.53262 71.9628 6.60041 72.1569 6.59676C72.7215 6.58625 73.2866 6.60389 73.8514 6.59619C74.0271 6.59378 74.0902 6.62989 74.0899 6.82241C74.0835 10.145 74.0833 13.4676 74.0901 16.7902C74.0905 16.9879 74.0195 17.0158 73.8484 17.0131C73.2931 17.0046 72.7374 17.018 72.1821 17.0074C71.9901 17.0038 71.9249 17.053 71.9282 17.2549C71.9405 18.0222 71.941 18.79 71.9286 19.5572C71.925 19.7728 71.9787 19.8395 72.2054 19.8386C74.3802 19.8298 76.5552 19.8333 78.73 19.8333ZM67.8621 0.319946H90.4044C90.357 0.427943 90.3809 0.541725 90.3809 0.652529C90.3796 8.08376 90.3812 15.515 90.3734 22.9462C90.3731 23.218 90.4238 23.2978 90.7172 23.2974C98.2212 23.2876 105.725 23.2896 113.229 23.2896C113.206 23.3248 113.284 23.4087 113.173 23.4026C113.107 23.399 113.041 23.402 112.975 23.402C75.4798 23.402 37.9847 23.4021 0.489634 23.3941C0.416866 23.394 0.228223 23.5327 0.235398 23.2896C7.66095 23.2896 15.0864 23.2881 22.5119 23.296C22.7772 23.2963 22.8496 23.2454 22.8492 22.9686C22.8402 15.5125 22.8421 8.05629 22.8417 0.600132C22.8417 0.506736 22.8368 0.413341 22.8341 0.319946H45.2634C45.2654 0.432155 45.2693 0.544308 45.2693 0.656517C45.2696 8.08539 45.271 15.5143 45.2636 22.9431C45.2633 23.2099 45.3054 23.2982 45.6048 23.2977C52.918 23.2873 60.2314 23.2881 67.5448 23.2958C67.8071 23.296 67.8846 23.2495 67.8842 22.9699C67.875 15.5223 67.8769 8.07471 67.8763 0.627089C67.8763 0.524708 67.8671 0.422327 67.8621 0.319946Z" fill="#FDFDFD"/>
<path id="Fill 3" fill-rule="evenodd" clip-rule="evenodd" d="M60.3894 12.4786C60.6997 12.3635 60.9368 12.2542 61.1852 12.1873C62.0838 11.9451 62.5939 11.3212 62.7928 10.4528C63.1311 8.97663 63.1081 7.4823 62.773 6.01288C62.546 5.01743 61.9404 4.30494 60.8944 4.07231C60.5296 3.99113 60.159 3.94012 59.7847 3.93989C56.6892 3.93775 53.5938 3.93972 50.4983 3.93362C50.3069 3.93323 50.2446 3.97865 50.2448 4.18083C50.2502 9.31101 50.2504 14.4412 50.2444 19.5714C50.2442 19.7838 50.3234 19.813 50.5052 19.8113C51.3655 19.8031 52.2262 19.7956 53.0861 19.815C53.3432 19.8208 53.3867 19.7424 53.3855 19.5037C53.3754 17.6211 53.3799 15.7385 53.3798 13.8558C53.3797 13.7178 53.3407 13.5882 53.5772 13.5898C55.2417 13.6013 56.9063 13.5903 58.5708 13.5999C59.1915 13.6035 59.7341 14.0534 59.768 14.5732C59.8321 15.5583 59.8799 16.5446 59.9428 17.5298C59.9877 18.2333 60.0498 18.9358 60.0957 19.6393C60.1044 19.7716 60.1427 19.8118 60.2772 19.8109C61.1563 19.8049 62.0354 19.8054 62.9144 19.8116C63.0559 19.8126 63.0948 19.7686 63.0723 19.6328C62.9606 18.9621 62.9732 18.2843 62.9593 17.6075C62.938 16.5744 62.915 15.5431 62.7486 14.5171C62.599 13.5937 62.1215 12.9998 61.2272 12.7432C60.9686 12.669 60.7137 12.5815 60.3894 12.4786ZM67.6275 0.319946C67.6324 0.422932 67.6415 0.525917 67.6415 0.628903C67.6422 8.12046 67.6402 15.6121 67.6494 23.1036C67.6497 23.3849 67.5728 23.4317 67.3122 23.4314C60.0471 23.4238 52.782 23.423 45.517 23.4334C45.2196 23.4338 45.1779 23.3451 45.1782 23.0767C45.1855 15.604 45.184 8.13119 45.1837 0.658504C45.1837 0.545633 45.18 0.432818 45.1779 0.319946H67.6275Z" fill="#B0B6BA"/>
<path id="Fill 5" fill-rule="evenodd" clip-rule="evenodd" d="M11.493 7.91977C12.2589 11.2301 12.8996 14.521 13.601 17.7987C13.7066 18.292 13.8105 18.7865 13.9428 19.2729C14.0148 19.5376 14.1438 19.7814 14.4777 19.8074C15.3453 19.8751 16.2105 19.876 17.0813 19.8299C17.6498 19.7998 17.8393 19.6084 17.964 19.0505C18.1537 18.2019 18.311 17.3459 18.4801 16.4926C18.8838 14.4558 19.2819 12.4178 19.6908 10.382C20.1052 8.31917 20.524 6.2572 20.9575 4.19839C21.0129 3.93535 20.919 3.93637 20.7233 3.93846C19.9657 3.94648 19.2077 3.95534 18.4506 3.93495C18.21 3.92846 18.1335 4.00827 18.0976 4.22951C17.746 6.39242 17.3797 8.55295 17.0319 10.7165C16.714 12.6939 16.3751 14.6675 15.9873 16.6919C15.9473 16.5516 15.9201 16.464 15.8975 16.3753C15.0441 13.0215 14.4571 9.60958 13.7119 6.23223C13.5931 5.69389 13.5063 5.14731 13.3633 4.6158C13.2337 4.13417 12.97 3.9532 12.4889 3.94749C11.8904 3.94043 11.2916 3.93851 10.6931 3.94761C10.0529 3.95732 9.87452 4.0935 9.72724 4.72899C9.51839 5.63035 9.32845 6.53622 9.1379 7.44176C8.63926 9.8115 8.14932 12.1831 7.64558 14.5518C7.49723 15.2493 7.40928 15.9646 7.09075 16.6844C6.97075 16.0114 6.85625 15.3962 6.75185 14.7794C6.46291 13.0715 6.17318 11.3637 5.89316 9.65425C5.59344 7.82426 5.29994 5.99314 5.01734 4.16032C4.98771 3.96834 4.91839 3.93834 4.75214 3.93947C3.87296 3.94574 2.99355 3.94987 2.11453 3.93586C1.90091 3.93247 1.89479 4.01572 1.92819 4.1776C2.34735 6.21094 2.76814 8.24393 3.18113 10.2785C3.68341 12.753 4.17902 15.229 4.67665 17.7044C4.77251 18.1812 4.85328 18.6613 4.96116 19.1353C5.05876 19.5644 5.27727 19.7717 5.61067 19.8075C6.55322 19.9088 7.49577 19.8827 8.43843 19.8113C8.62152 19.7975 8.74725 19.6912 8.8471 19.5474C8.94976 19.3995 9.01313 19.2326 9.05039 19.0585C9.24982 18.1259 9.44705 17.1928 9.64136 16.2592C10.1386 13.8698 10.6313 11.4795 11.1326 9.09112C11.2134 8.70596 11.2491 8.30222 11.493 7.91977ZM22.6917 0.325482C22.6943 0.419413 22.6992 0.513345 22.6992 0.607276C22.6995 8.10624 22.6977 15.6052 22.7066 23.1042C22.707 23.3825 22.6351 23.4338 22.3716 23.4334C14.9946 23.4255 7.61761 23.427 0.240644 23.427C0.240644 15.8065 0.241598 8.186 0.235199 0.565535C0.235031 0.362366 0.276117 0.319777 0.47885 0.319947C7.88315 0.326499 15.2874 0.325482 22.6917 0.325482Z" fill="#B0B6BA"/>
<path id="Fill 8" fill-rule="evenodd" clip-rule="evenodd" d="M95.293 11.8733C95.293 14.4326 95.2956 16.9919 95.2879 19.5512C95.2872 19.7593 95.3337 19.8151 95.5505 19.8142C97.7581 19.8049 99.9658 19.8063 102.173 19.8085C103.001 19.8093 103.828 19.8121 104.65 19.696C105.376 19.5934 106.073 19.4013 106.716 19.0374C107.769 18.4411 108.241 17.4569 108.538 16.363C108.911 14.9912 108.9 13.5743 108.993 12.1719C109.052 11.2801 108.914 10.3895 108.863 9.49865C108.818 8.72273 108.701 7.95403 108.49 7.19968C108.066 5.67839 107.14 4.65175 105.571 4.23741C104.815 4.03759 104.041 3.95756 103.263 3.95422C100.703 3.94332 98.143 3.94846 95.5834 3.9366C95.3508 3.93547 95.2858 3.98376 95.2867 4.22358C95.2967 6.77348 95.293 9.32339 95.293 11.8733ZM113.229 23.4256C105.642 23.4256 98.0552 23.4235 90.4685 23.4334C90.1718 23.4338 90.1206 23.3536 90.1209 23.0802C90.1288 15.6067 90.1271 8.13324 90.1284 0.659675C90.1284 0.548296 90.1043 0.433811 90.1522 0.325256C97.7588 0.325256 105.365 0.326329 112.972 0.319947C113.186 0.319777 113.235 0.367672 113.234 0.579416C113.228 8.19486 113.229 15.8102 113.229 23.4256Z" fill="#B0B6BA"/>
<path id="Fill 10" fill-rule="evenodd" clip-rule="evenodd" d="M78.2341 19.576C76.0816 19.576 73.9291 19.5724 71.7766 19.5812C71.5523 19.5821 71.4992 19.5156 71.5026 19.3003C71.515 18.5341 71.5144 17.7674 71.5022 17.0012C71.499 16.7996 71.5635 16.7504 71.7535 16.7541C72.3031 16.7647 72.8532 16.7512 73.4027 16.7598C73.572 16.7624 73.6423 16.7346 73.6419 16.5371C73.6352 13.2192 73.6354 9.90129 73.6417 6.58333C73.6421 6.39108 73.5796 6.35502 73.4057 6.35743C72.8467 6.36517 72.2874 6.3475 71.7285 6.35805C71.5365 6.36164 71.4996 6.29395 71.5018 6.11768C71.5113 5.35138 71.514 4.5848 71.5028 3.81855C71.4997 3.60595 71.5487 3.53484 71.7755 3.53601C73.1451 3.5433 74.5149 3.52956 75.8847 3.53024C78.7548 3.53164 81.6248 3.53966 84.4949 3.53736C84.7048 3.53719 84.7786 3.57869 84.7771 3.80936C84.7673 5.37011 84.7694 6.93109 84.7807 8.49185C84.7823 8.71589 84.719 8.77315 84.5007 8.76956C83.7182 8.75655 82.9352 8.7584 82.1525 8.76878C81.9624 8.7713 81.8966 8.72817 81.9007 8.52499C81.914 7.87102 81.9007 7.21649 81.9094 6.56235C81.9115 6.40381 81.8668 6.3604 81.7089 6.36096C80.1154 6.36663 78.5219 6.36713 76.9283 6.36057C76.7523 6.3599 76.7113 6.41665 76.7125 6.58428C76.7194 7.63105 76.7215 8.67798 76.7111 9.72469C76.7092 9.92591 76.7707 9.97022 76.9614 9.96887C78.1821 9.96052 79.403 9.97235 80.6236 9.95805C80.8656 9.95524 80.9119 10.0272 80.9071 10.2529C80.892 10.9629 80.8907 11.6738 80.9077 12.3837C80.9132 12.6144 80.8373 12.6546 80.6279 12.6529C79.4166 12.6434 78.205 12.6526 76.9936 12.644C76.7885 12.6426 76.7063 12.6765 76.7098 12.912C76.7277 14.108 76.7297 15.3044 76.7251 16.5007C76.7244 16.7058 76.7735 16.7672 76.9877 16.7656C78.5905 16.7532 80.1933 16.7499 81.7961 16.7594C82.0294 16.7607 82.0678 16.6834 82.0645 16.4749C82.0529 15.7367 82.0655 14.9981 82.0561 14.2598C82.0538 14.075 82.0884 14.0003 82.2959 14.0032C83.1064 14.0148 83.9173 14.014 84.7278 14.0001C84.9427 13.9964 84.9857 14.0638 84.9845 14.2682C84.9746 15.9505 84.9734 17.6329 84.9806 19.3153C84.9815 19.5221 84.9317 19.5818 84.7195 19.5809C82.5577 19.5728 80.3959 19.576 78.2341 19.576Z" fill="#B0B6BA"/>
<path id="Fill 12" fill-rule="evenodd" clip-rule="evenodd" d="M33.9483 19.5757C32.2224 19.5757 30.4964 19.5722 28.7705 19.5801C28.5589 19.5811 28.4807 19.5404 28.4854 19.3085C28.501 18.5428 28.4975 17.7765 28.4851 17.0107C28.4818 16.8064 28.5288 16.7426 28.7459 16.7448C29.8621 16.756 30.9785 16.7439 32.0946 16.7517C32.2844 16.7529 32.3475 16.7139 32.347 16.5103C32.3402 13.2033 32.3406 9.89622 32.3463 6.58918C32.3466 6.40462 32.2951 6.35692 32.1127 6.35809C30.9871 6.36521 29.8613 6.35512 28.7358 6.36376C28.539 6.36527 28.4826 6.31364 28.4853 6.11686C28.4963 5.33233 28.4958 4.5474 28.4855 3.76282C28.483 3.57646 28.5398 3.52993 28.7218 3.53021C32.1925 3.5352 35.6632 3.5352 39.1339 3.53021C39.3232 3.52993 39.3938 3.57069 39.3911 3.77504C39.3809 4.55951 39.3845 5.34427 39.3952 6.1288C39.3976 6.31246 39.3446 6.36476 39.1579 6.36348C38.0418 6.35563 36.9255 6.36549 35.8092 6.35821C35.606 6.35686 35.5253 6.3854 35.526 6.62355C35.5359 9.91198 35.5349 13.2003 35.5275 16.4888C35.527 16.6946 35.5679 16.7548 35.7838 16.7529C36.9001 16.7432 38.0164 16.758 39.1326 16.7488C39.3475 16.7471 39.403 16.8115 39.3995 17.0165C39.3864 17.7729 39.38 18.5298 39.3921 19.2862C39.3958 19.5179 39.3341 19.5827 39.098 19.5812C37.3815 19.5709 35.6649 19.5757 33.9483 19.5757Z" fill="#B0B6BA"/>
<path id="Fill 14" fill-rule="evenodd" clip-rule="evenodd" d="M56.4906 6.71064C55.5552 6.71064 54.6197 6.71469 53.6843 6.70697C53.5105 6.70554 53.4412 6.73487 53.4424 6.92648C53.4513 8.26891 53.4515 9.61144 53.4423 10.9539C53.4409 11.1465 53.5122 11.1775 53.6842 11.1746C55.3771 11.1465 57.0705 11.2128 58.7635 11.1404C59.5611 11.1063 59.8979 10.8172 60.018 10.0337C60.1241 9.34237 60.0997 8.64913 60.059 7.95687C60.0367 7.57911 59.921 7.22295 59.6529 6.92928C59.541 6.80661 59.4162 6.75032 59.2406 6.7432C58.3241 6.70609 57.4075 6.70072 56.4906 6.71064ZM60.4647 12.463C60.7893 12.5628 61.0443 12.6476 61.303 12.7196C62.1979 12.9685 62.6756 13.5448 62.8254 14.4407C62.9918 15.4362 63.0148 16.4368 63.0362 17.439C63.0501 18.0957 63.0374 18.7533 63.1491 19.4042C63.1717 19.5359 63.1327 19.5786 62.9912 19.5776C62.1117 19.5716 61.2322 19.5711 60.3525 19.5769C60.218 19.5778 60.1796 19.5388 60.1709 19.4104C60.125 18.7279 60.0629 18.0463 60.018 17.3637C59.955 16.4078 59.9072 15.451 59.8431 14.4951C59.8092 13.9908 59.2663 13.5543 58.6452 13.5508C56.9798 13.5415 55.3143 13.5521 53.6489 13.541C53.4123 13.5394 53.4513 13.6652 53.4514 13.7991C53.4515 15.6257 53.447 17.4524 53.4571 19.2789C53.4583 19.5105 53.4148 19.5866 53.1576 19.5809C52.2971 19.5621 51.436 19.5694 50.5752 19.5773C50.3933 19.579 50.3141 19.5506 50.3143 19.3445C50.3202 14.3671 50.32 9.38961 50.3147 4.41215C50.3145 4.21598 50.3768 4.17191 50.5683 4.17224C53.6654 4.17822 56.7626 4.17624 59.8597 4.17833C60.2342 4.1786 60.6051 4.2281 60.9701 4.30686C62.0166 4.53257 62.6226 5.22384 62.8497 6.18966C63.185 7.61534 63.208 9.06519 62.8696 10.4974C62.6705 11.34 62.1602 11.9453 61.261 12.1802C61.0125 12.2452 60.7753 12.3512 60.4647 12.463Z" fill="#FDFDFD"/>
<path id="Fill 16" fill-rule="evenodd" clip-rule="evenodd" d="M11.2 7.5432C10.9536 7.92831 10.9175 8.33487 10.8359 8.72272C10.3292 11.1278 9.83135 13.5347 9.32887 15.9408C9.1325 16.8809 8.93319 17.8205 8.73167 18.7596C8.694 18.9349 8.62997 19.103 8.52623 19.2519C8.42532 19.3967 8.29827 19.5038 8.11325 19.5177C7.16064 19.5895 6.20815 19.6159 5.25566 19.5138C4.91874 19.4778 4.69793 19.2691 4.5993 18.8369C4.49028 18.3597 4.40866 17.8762 4.31178 17.3961C3.80891 14.9034 3.30807 12.4102 2.80049 9.91839C2.38315 7.86962 1.95792 5.82244 1.53434 3.77492C1.50059 3.61191 1.50677 3.52808 1.72264 3.53149C2.61093 3.54559 3.49962 3.54144 4.38807 3.53513C4.55608 3.53399 4.62612 3.56419 4.65607 3.75752C4.94166 5.60312 5.23824 7.44702 5.54113 9.28978C5.8241 11.0111 6.11689 12.7308 6.40888 14.4506C6.51438 15.0718 6.63009 15.6912 6.75135 16.369C7.07324 15.6441 7.16212 14.9239 7.31203 14.2215C7.82109 11.8363 8.31619 9.44813 8.82009 7.06185C9.01265 6.15 9.20459 5.2378 9.41565 4.33016C9.56448 3.69023 9.74479 3.5531 10.3917 3.54332C10.9965 3.53416 11.6016 3.5361 12.2064 3.54321C12.6926 3.54895 12.9591 3.73118 13.0901 4.21617C13.2346 4.75139 13.3223 5.30179 13.4423 5.84388C14.1954 9.24479 14.7886 12.6806 15.651 16.0578C15.6738 16.1471 15.7013 16.2352 15.7417 16.3765C16.1336 14.338 16.4761 12.3507 16.7973 10.3594C17.1488 8.18079 17.519 6.00519 17.8743 3.82719C17.9106 3.60441 17.9879 3.52404 18.231 3.53058C18.9961 3.55111 19.7621 3.54218 20.5277 3.53411C20.7255 3.532 20.8204 3.53098 20.7644 3.79585C20.3263 5.86902 19.9031 7.94538 19.4843 10.0226C19.0711 12.0726 18.6688 14.1248 18.2609 16.1758C18.09 17.0351 17.931 17.8971 17.7393 18.7516C17.6132 19.3134 17.4217 19.5061 16.8473 19.5364C15.9673 19.5829 15.093 19.5819 14.2162 19.5138C13.8787 19.4876 13.7484 19.2421 13.6756 18.9755C13.542 18.4857 13.437 17.9878 13.3303 17.491C12.6214 14.1905 11.974 10.8767 11.2 7.5432Z" fill="#FDFDFD"/>
<path id="Fill 18" fill-rule="evenodd" clip-rule="evenodd" d="M98.382 11.8659C98.382 13.4916 98.3869 15.1173 98.3766 16.7429C98.3752 16.9755 98.4215 17.0532 98.6802 17.0499C99.8303 17.0352 100.981 17.049 102.131 17.045C102.664 17.0432 103.197 17.0735 103.728 17.0068C104.565 16.9017 105.157 16.5181 105.383 15.6806C105.478 15.3267 105.563 14.9734 105.592 14.6083C105.704 13.2313 105.63 11.8517 105.653 10.4735C105.665 9.78729 105.615 9.10652 105.477 8.43155C105.323 7.6821 105.009 7.06545 104.19 6.82806C103.9 6.74403 103.604 6.71586 103.304 6.71548C101.761 6.71339 100.217 6.7169 98.6744 6.7055C98.4456 6.70385 98.3752 6.75785 98.3766 6.98888C98.3868 8.61452 98.382 10.2402 98.382 11.8659ZM95.2634 11.8747C95.2634 9.40008 95.2671 6.92539 95.2572 4.45082C95.2563 4.21808 95.3202 4.17122 95.5487 4.17226C98.0641 4.18382 100.579 4.17878 103.095 4.18941C103.86 4.19265 104.62 4.27032 105.363 4.46419C106.905 4.8663 107.814 5.86268 108.232 7.33906C108.439 8.07114 108.554 8.81709 108.598 9.57016C108.648 10.4347 108.784 11.299 108.726 12.1645C108.634 13.5254 108.645 14.9005 108.279 16.2319C107.987 17.2934 107.523 18.2486 106.488 18.8273C105.857 19.1805 105.172 19.3668 104.458 19.4664C103.651 19.5791 102.838 19.5764 102.025 19.5756C99.8552 19.5735 97.6858 19.5721 95.5164 19.5812C95.3034 19.5821 95.2577 19.5279 95.2584 19.326C95.266 16.8422 95.2634 14.3584 95.2634 11.8747Z" fill="#FDFDFD"/>
<path id="Fill 20" fill-rule="evenodd" clip-rule="evenodd" d="M56.4671 6.74482C57.352 6.73484 58.2368 6.74024 59.1215 6.77756C59.291 6.78472 59.4114 6.84133 59.5195 6.96467C59.7783 7.25999 59.8899 7.61813 59.9114 7.99799C59.9508 8.6941 59.9743 9.39121 59.8719 10.0864C59.756 10.8742 59.4308 11.1649 58.661 11.1993C57.0268 11.2721 55.3923 11.2053 53.7581 11.2336C53.5921 11.2365 53.5233 11.2053 53.5246 11.0117C53.5335 9.66177 53.5333 8.31176 53.5248 6.96186C53.5235 6.76918 53.5905 6.73969 53.7582 6.74112C54.6612 6.7489 55.5641 6.74482 56.4671 6.74482Z" fill="#B0B6BA"/>
<path id="Fill 22" fill-rule="evenodd" clip-rule="evenodd" d="M98.4726 11.8648C98.4726 10.2505 98.4773 8.63614 98.4674 7.02186C98.466 6.79243 98.5343 6.73882 98.7563 6.74045C100.253 6.75177 101.75 6.74829 103.248 6.75036C103.539 6.75074 103.826 6.77872 104.107 6.86216C104.902 7.0979 105.207 7.71023 105.356 8.45446C105.49 9.12471 105.538 9.80073 105.527 10.4821C105.504 11.8507 105.576 13.2207 105.468 14.5881C105.439 14.9506 105.357 15.3015 105.265 15.6529C105.046 16.4846 104.471 16.8655 103.66 16.9699C103.144 17.0361 102.627 17.006 102.11 17.0078C100.994 17.0117 99.8777 16.998 98.7619 17.0126C98.511 17.0159 98.466 16.9388 98.4674 16.7078C98.4773 15.0935 98.4726 13.4792 98.4726 11.8648Z" fill="#B0B6BA"/>
</g>
</svg>
