<svg width="32" height="19" viewBox="0 0 32 19" fill="none" xmlns="http://www.w3.org/2000/svg">
<path d="M29.4108 0H2.50597C1.36296 0 0.436363 0.937985 0.436363 2.09505V16.7604C0.436363 17.9174 1.36296 18.8554 2.50597 18.8554H29.4108C30.5538 18.8554 31.4804 17.9174 31.4804 16.7604V2.09505C31.4804 0.937985 30.5538 0 29.4108 0Z" fill="#000066"/>
<path fill-rule="evenodd" clip-rule="evenodd" d="M26.4068 9.4226C26.4068 12.8968 23.6358 15.7129 20.2169 15.7129C16.7986 15.7129 14.0272 12.8968 14.0272 9.4226C14.0272 5.94828 16.7986 3.13214 20.2169 3.13214C23.6358 3.13214 26.4068 5.94828 26.4068 9.4226Z" fill="#CC0000"/>
<path fill-rule="evenodd" clip-rule="evenodd" d="M15.4353 13.4172C15.2644 13.2066 15.1069 12.984 14.9638 12.751H17.1576C17.2892 12.5375 17.4081 12.315 17.5143 12.0848H14.6073C14.5082 11.8693 14.4202 11.6471 14.3452 11.4189H17.7759C17.9825 10.7916 18.0941 10.1206 18.0941 9.4226C18.0941 8.96552 18.0462 8.51977 17.9552 8.09053H14.1664C14.2143 7.86358 14.2748 7.6415 14.346 7.42439H17.7755C17.7002 7.19625 17.6127 6.97407 17.5137 6.75855H14.6079C14.7141 6.52842 14.8332 6.30635 14.9645 6.09232H17.1569C17.0139 5.8599 16.8561 5.63773 16.6854 5.42678H15.436C15.6283 5.18969 15.8372 4.96712 16.0608 4.76104C14.9622 3.74877 13.504 3.13214 11.9046 3.13214C8.4858 3.13214 5.71446 5.94828 5.71446 9.4226C5.71446 12.8968 8.4858 15.7129 11.9046 15.7129C13.5041 15.7129 14.9624 15.0962 16.0608 14.0843C16.2847 13.8779 16.4939 13.6548 16.6861 13.4172H15.4353Z" fill="#0066CC"/>
<path fill-rule="evenodd" clip-rule="evenodd" d="M15.9724 11.1225C15.7078 11.1936 15.452 11.2284 15.1816 11.2278C14.3189 11.227 13.8695 10.8277 13.8695 10.0641C13.8695 9.17188 14.4415 8.51569 15.218 8.51569C15.8531 8.51569 16.2585 8.88359 16.2585 9.46006C16.2585 9.65132 16.2311 9.83771 16.1639 10.1011H14.6297C14.5751 10.4741 14.843 10.6379 15.2992 10.6379C15.5725 10.6379 15.8195 10.5879 16.0932 10.4761L15.9724 11.1225ZM15.5598 9.57498C15.5598 9.51871 15.6451 9.1183 15.2011 9.10965C14.9559 9.10965 14.7801 9.27526 14.709 9.57498H15.5598Z" fill="#000066"/>
<path fill-rule="evenodd" clip-rule="evenodd" d="M16.4925 9.40011C16.4925 9.72965 16.675 9.9574 17.0901 10.1269C17.4074 10.2589 17.4573 10.2972 17.4573 10.4152C17.4573 10.5787 17.3172 10.6537 17.0059 10.6517C16.7722 10.65 16.5588 10.621 16.3071 10.5502L16.1956 11.1513C16.4195 11.2041 16.7332 11.2214 17.0114 11.2279C17.8399 11.2279 18.2224 10.9523 18.2224 10.3564C18.2224 9.99815 18.0628 9.78751 17.6694 9.63044C17.3405 9.49684 17.3019 9.46811 17.3019 9.34713C17.3019 9.20517 17.4322 9.1334 17.6863 9.1334C17.8404 9.1334 18.0512 9.14771 18.2513 9.17237L18.3636 8.56797C18.1597 8.53924 17.8504 8.51617 17.6713 8.51617C16.7936 8.51617 16.4898 8.91768 16.4925 9.40011Z" fill="#000066"/>
<path fill-rule="evenodd" clip-rule="evenodd" d="M13.4494 11.1848H12.8057L12.8211 10.9108C12.6249 11.1269 12.3634 11.2276 12.0086 11.2276C11.5887 11.2276 11.3011 10.9359 11.3011 10.5163C11.3011 9.87847 11.8011 9.51056 12.6609 9.51056C12.7492 9.51056 12.8616 9.51732 12.977 9.53054C13.0009 9.44515 13.0074 9.40837 13.0074 9.36205C13.0074 9.18749 12.8721 9.12317 12.5103 9.12317C12.1536 9.12456 11.9129 9.17834 11.6896 9.23928L11.7996 8.65416C12.1858 8.55436 12.4386 8.51569 12.7247 8.51569C13.3905 8.51569 13.7421 8.78111 13.7421 9.27954C13.7477 9.41265 13.7022 9.67966 13.6792 9.79656C13.6532 9.96645 13.4686 10.9522 13.4494 11.1848ZM12.8844 10.0211C12.8029 10.013 12.7674 10.0105 12.7115 10.0105C12.2726 10.0105 12.05 10.1433 12.05 10.4054C12.05 10.5701 12.1586 10.6729 12.3279 10.6729C12.6434 10.6729 12.8711 10.4048 12.8844 10.0211Z" fill="#000066"/>
<path fill-rule="evenodd" clip-rule="evenodd" d="M19.5783 11.1435C19.3672 11.2022 19.2025 11.2279 19.0246 11.2279C18.6303 11.2279 18.415 11.0231 18.415 10.6585C18.4026 10.5583 18.4989 10.0954 18.5208 9.96649C18.5426 9.83716 18.8841 7.95178 18.8841 7.95178H19.6501L19.5343 8.57567H19.9272L19.8204 9.21218H19.4258C19.4258 9.21218 19.2093 10.3173 19.2093 10.4018C19.2093 10.5357 19.2891 10.594 19.4725 10.594C19.5602 10.594 19.628 10.5856 19.6803 10.5697L19.5783 11.1435Z" fill="#000066"/>
<path fill-rule="evenodd" clip-rule="evenodd" d="M23.0015 8.51564C22.44 8.51564 22.0014 8.75074 21.7465 9.14281L21.9677 8.56107C21.5602 8.40907 21.2974 8.62608 21.06 8.93445C21.06 8.93445 21.0201 8.98564 20.9804 9.03246V8.57528H20.2612C20.1637 9.38218 19.9915 10.2005 19.8567 11.0092L19.8242 11.185H20.5979C20.6714 10.7747 20.7316 10.4417 20.7917 10.1761C20.9561 9.44739 21.2327 9.22472 21.648 9.32333C21.5521 9.53259 21.4996 9.77514 21.4996 10.0434C21.4996 10.6949 21.8475 11.2278 22.7118 11.2278C23.5839 11.2278 24.2154 10.7544 24.2154 9.67494C24.2154 9.02391 23.7945 8.51564 23.0015 8.51564ZM22.7763 10.5947C22.503 10.5989 22.3373 10.3659 22.3373 10.0172C22.3373 9.60406 22.5791 9.13714 22.9675 9.13714C23.281 9.13714 23.3883 9.38974 23.3883 9.65883C23.3883 10.2465 23.1513 10.5947 22.7763 10.5947Z" fill="#000066"/>
<path fill-rule="evenodd" clip-rule="evenodd" d="M10.9401 11.1851H10.1695L10.6274 8.73332L9.57311 11.1851H8.87069L8.74234 8.74773L8.28293 11.1851H7.58383L8.17923 7.99591H9.38342L9.4837 9.77383L10.2466 7.99591H11.5474L10.9401 11.1851Z" fill="#000066"/>
<path fill-rule="evenodd" clip-rule="evenodd" d="M16.1657 10.9259C15.9014 10.9972 15.6455 11.032 15.3752 11.0314C14.5124 11.0306 14.0631 10.6312 14.0631 9.8676C14.0631 8.97541 14.635 8.31921 15.4114 8.31921C16.0466 8.31921 16.4521 8.68712 16.4521 9.26349C16.4521 9.45475 16.4246 9.64075 16.3575 9.90468H14.8233C14.7686 10.2773 15.0364 10.4413 15.4926 10.4413C15.7658 10.4413 16.013 10.3914 16.2866 10.2793L16.1657 10.9259ZM15.7532 9.37851C15.7532 9.32214 15.8385 8.92183 15.3946 8.91308C15.1495 8.91308 14.9737 9.07869 14.9024 9.37851H15.7532Z" fill="white"/>
<path fill-rule="evenodd" clip-rule="evenodd" d="M16.6858 9.20342C16.6858 9.53306 16.8683 9.7606 17.2833 9.93029C17.6007 10.0624 17.6505 10.1006 17.6505 10.2183C17.6505 10.3821 17.5104 10.4571 17.1994 10.4552C16.9653 10.4534 16.752 10.4245 16.5005 10.3536L16.3888 10.9545C16.6128 11.0075 16.9267 11.0248 17.2045 11.0314C18.0331 11.0314 18.4158 10.7557 18.4158 10.1596C18.4158 9.80156 18.2561 9.59071 17.8626 9.43385C17.5337 9.30034 17.4951 9.27122 17.4951 9.15063C17.4951 9.00868 17.6256 8.93661 17.8796 8.93661C18.0336 8.93661 18.2444 8.95122 18.4446 8.97587L18.5568 8.37147C18.353 8.34234 18.0437 8.31958 17.8648 8.31958C16.9869 8.31958 16.6831 8.72089 16.6858 9.20342Z" fill="white"/>
<path fill-rule="evenodd" clip-rule="evenodd" d="M13.6428 10.9882H12.9989L13.0145 10.7143C12.8181 10.9302 12.5568 11.0308 12.202 11.0308C11.7822 11.0308 11.4943 10.7391 11.4943 10.3195C11.4943 9.6819 11.9944 9.31399 12.8541 9.31399C12.9425 9.31399 13.0548 9.32085 13.1704 9.33358C13.1943 9.24838 13.2007 9.2119 13.2007 9.16548C13.2007 8.99052 13.0655 8.9265 12.7038 8.9265C12.347 8.92799 12.1063 8.98177 11.8831 9.04281L11.9927 8.45759C12.3791 8.35778 12.6318 8.31921 12.9181 8.31921C13.5839 8.31921 13.9354 8.58434 13.9354 9.08297C13.9411 9.21617 13.8953 9.48269 13.8727 9.59999C13.8463 9.76988 13.6619 10.7556 13.6428 10.9882ZM13.0777 9.82465C12.9963 9.8161 12.9607 9.81392 12.9047 9.81392C12.466 9.81392 12.2433 9.94653 12.2433 10.2085C12.2433 10.3734 12.3521 10.4765 12.5211 10.4765C12.8367 10.4765 13.0645 10.2081 13.0777 9.82465Z" fill="white"/>
<path fill-rule="evenodd" clip-rule="evenodd" d="M19.7716 10.947C19.5604 11.0058 19.3958 11.0314 19.2178 11.0314C18.8235 11.0314 18.6084 10.8266 18.6084 10.4619C18.5959 10.3617 18.6922 9.89889 18.714 9.76996C18.736 9.64063 19.0775 7.75525 19.0775 7.75525H19.8434L19.7277 8.37894H20.1206L20.0137 9.01565H19.6192C19.6192 9.01565 19.4025 10.1208 19.4025 10.2049C19.4025 10.3393 19.4824 10.3971 19.6658 10.3971C19.7535 10.3971 19.8212 10.3892 19.8738 10.3731L19.7716 10.947Z" fill="white"/>
<path fill-rule="evenodd" clip-rule="evenodd" d="M23.5819 9.46191C23.5819 10.0501 23.3446 10.3982 22.9696 10.3982C22.6963 10.4022 22.5307 10.1695 22.5307 9.82078C22.5307 9.40763 22.7725 8.94062 23.1608 8.94062C23.4744 8.94062 23.5819 9.19321 23.5819 9.46191ZM24.4088 9.47841C24.4088 8.82749 23.9878 8.31921 23.195 8.31921C22.2829 8.31921 21.693 8.93694 21.693 9.84702C21.693 10.4983 22.0409 11.0314 22.9053 11.0314C23.7774 11.0314 24.4088 10.558 24.4088 9.47841Z" fill="white"/>
<path fill-rule="evenodd" clip-rule="evenodd" d="M20.4545 8.3786C20.3572 9.1857 20.1848 10.0039 20.0502 10.8125L20.0177 10.9887H20.7914C21.0702 9.42686 21.1638 8.98201 21.7481 9.13858L22.0292 8.39968C21.6215 8.24768 21.3593 8.46479 21.1218 8.77335C21.1433 8.63448 21.1836 8.50038 21.1739 8.3786H20.4545Z" fill="white"/>
<path fill-rule="evenodd" clip-rule="evenodd" d="M11.1342 10.9886H10.3638L10.8216 8.53683L9.76721 10.9886H9.06479L8.93634 8.55114L8.47693 10.9886H7.77793L8.37323 7.79932H9.57752L9.64111 9.77376L10.4888 7.79932H11.7415L11.1342 10.9886Z" fill="white"/>
</svg>
