<svg width="65" height="46" viewBox="0 0 65 46" fill="none" xmlns="http://www.w3.org/2000/svg">
<g id="Techstars">
<path id="Fill 32" fill-rule="evenodd" clip-rule="evenodd" d="M38.4103 18.1339C40.4004 16.6074 42.3906 15.081 44.3806 13.5544C44.6758 13.3279 44.9749 13.1062 45.2633 12.8715C45.3629 12.7904 45.4143 12.8048 45.4998 12.889C46.4622 13.8366 47.4293 14.7794 48.3942 15.7244C49.9548 17.2526 51.5142 18.7822 53.0754 20.3099C54.3459 21.5531 55.6188 22.7939 56.8898 24.0367C58.2838 25.3999 59.6759 26.765 61.0704 28.1276C61.9526 28.9894 62.8377 29.8482 63.7212 30.7086C63.7554 30.7418 63.7863 30.7784 63.8282 30.8237C63.7487 30.8817 63.6649 30.8558 63.5894 30.8558C57.5038 30.8572 51.418 30.8571 45.3323 30.8567C45.1531 30.8566 44.9739 30.8519 44.7947 30.8494C44.784 30.7875 44.7317 30.7615 44.6875 30.7315C44.0705 30.3118 43.4483 29.8998 42.8368 29.4724C42.4101 29.1742 41.9637 28.904 41.558 28.576C41.53 28.4913 41.5006 28.4072 41.474 28.3222C40.6198 25.5866 39.7638 22.8517 38.9136 20.115C38.7162 19.4793 38.4916 18.8516 38.3344 18.2037C38.3786 18.2008 38.4065 18.1804 38.4103 18.1339Z" fill="#98A0A6"/>
<path id="Fill 34" fill-rule="evenodd" clip-rule="evenodd" d="M38.4113 18.1339C38.4076 18.1804 38.3797 18.2008 38.3354 18.2036C38.2773 18.1559 38.2225 18.1034 38.1607 18.061C36.3417 16.8165 34.521 15.5746 32.705 14.3259C32.5695 14.2327 32.4793 14.2307 32.3446 14.3245C31.4793 14.9259 30.6073 15.5178 29.7381 16.1137C28.7214 16.8109 27.7052 17.5091 26.6889 18.2068C26.6735 18.1902 26.6581 18.1735 26.6426 18.1569C26.9107 17.3115 27.1812 16.4669 27.4463 15.6206C27.8596 14.301 28.2666 12.9795 28.6839 11.6612C28.7309 11.5127 28.7089 11.4342 28.5823 11.3376C26.7748 9.95858 24.9723 8.57298 23.1688 7.18873C23.1262 7.15605 23.0865 7.1198 23.0453 7.08518C23.0835 7.02123 23.1373 7.04758 23.1798 7.04743C25.4363 7.04259 27.6928 7.03805 29.9493 7.03835C30.1101 7.03835 30.1975 7.01416 30.2584 6.83221C30.9909 4.64089 31.7368 2.45403 32.4793 0.265987C32.4898 0.235092 32.5023 0.204941 32.5258 0.142853C32.6997 0.650873 32.8654 1.13098 33.0285 1.6119C33.6225 3.36421 34.218 5.11615 34.8054 6.87062C34.8532 7.01319 34.9244 7.03716 35.057 7.03723C37.2998 7.03776 39.5425 7.04297 41.7852 7.04699C41.8518 7.04714 41.9185 7.04699 41.9861 7.04699C41.9942 7.13602 41.9282 7.15047 41.8891 7.18039C40.0748 8.57254 38.2596 9.96364 36.4431 11.353C36.3455 11.4277 36.3103 11.4907 36.353 11.6259C37.0131 13.7183 37.6644 15.8135 38.3186 17.9078C38.3428 17.9855 38.352 18.0701 38.4113 18.1339Z" fill="#98A0A6"/>
<path id="Fill 36" fill-rule="evenodd" clip-rule="evenodd" d="M41.5577 28.5758C41.9634 28.9039 42.4099 29.1741 42.8365 29.4723C43.448 29.8996 44.0702 30.3117 44.6871 30.7314C44.7314 30.7614 44.7836 30.7874 44.7945 30.8493C44.5809 30.8522 44.3673 30.8576 44.1537 30.8576C36.2359 30.8581 28.318 30.8581 20.4002 30.8578C20.3038 30.8577 20.2074 30.8522 20.111 30.8492C20.3227 30.6417 20.5837 30.5013 20.8249 30.3349C21.7159 29.7198 22.6131 29.1139 23.5081 28.5044C23.6164 28.4322 23.7253 28.3611 23.8328 28.2879C26.6558 26.3635 29.4793 24.4395 32.2999 22.5118C32.4179 22.4311 32.5009 22.4129 32.6282 22.5001C35.2475 24.2945 37.8693 26.0852 40.4927 27.8736C40.844 28.113 41.1804 28.3756 41.5577 28.5758Z" fill="#98A0A6"/>
<path id="Fill 38" fill-rule="evenodd" clip-rule="evenodd" d="M27.4909 37.0541C27.8081 36.6602 28.1445 36.3152 28.6263 36.1686C29.5698 35.8817 30.4803 35.9105 31.291 36.548C31.7286 36.8923 31.946 37.3672 31.9479 37.9168C31.9564 40.2993 31.9497 42.6818 31.9556 45.0643C31.9561 45.2439 31.8953 45.2781 31.7306 45.276C31.0269 45.2675 30.3229 45.2663 29.6191 45.2767C29.4391 45.2794 29.3863 45.235 29.387 45.0495C29.3938 42.9976 29.3908 40.9456 29.3917 38.8937C29.3918 38.6583 29.3714 38.4261 29.3054 38.1997C29.1875 37.7944 28.9123 37.5882 28.4831 37.5799C28.0166 37.571 27.7341 37.7608 27.599 38.1715C27.5051 38.457 27.4927 38.7536 27.4922 39.0489C27.4886 41.0458 27.4875 43.0426 27.4947 45.0396C27.4954 45.2325 27.44 45.2802 27.2518 45.2772C26.548 45.266 25.8441 45.2681 25.1403 45.2759C24.9829 45.2777 24.9448 45.2279 24.9449 45.0758C24.9488 40.8823 24.9489 36.6889 24.9442 32.4954C24.944 32.3245 24.9894 32.2735 25.1627 32.2758C25.8664 32.2852 26.5704 32.285 27.2742 32.2756C27.4472 32.2732 27.4945 32.3237 27.4938 32.4953C27.4876 33.9481 27.4906 35.401 27.4909 36.8539V37.0541Z" fill="#98A0A6"/>
<path id="Fill 40" fill-rule="evenodd" clip-rule="evenodd" d="M11.5879 39.5812C11.5879 39.7202 11.4933 39.7142 11.4049 39.7142C11.0743 39.7172 10.7428 39.7152 10.4123 39.7152C10.095 39.7152 9.77763 39.7112 9.46033 39.7182C9.32411 39.7213 9.26308 39.6878 9.26509 39.5356C9.27225 39.1632 9.28747 38.7948 9.38715 38.4325C9.54277 37.8662 9.88954 37.5789 10.4275 37.5789C10.9727 37.5789 11.3346 37.8571 11.4841 38.4142C11.5859 38.7958 11.589 39.1885 11.5879 39.5812ZM13.9466 38.3777C13.6761 37.2765 13.0466 36.4992 11.9248 36.1897C11.0268 35.9431 10.1146 35.9411 9.20235 36.1207C7.92399 36.3733 7.17757 37.1599 6.89377 38.4132C6.69443 39.293 6.68637 40.186 6.70256 41.0801C6.71576 41.8372 6.7697 42.5912 6.98628 43.3229C7.29858 44.3854 7.98293 45.0562 9.06806 45.315C9.8288 45.4956 10.5885 45.5179 11.3634 45.39C12.9509 45.1272 13.9975 43.9906 14.0737 42.4167C14.0808 42.2573 14.0483 42.2015 13.8764 42.2036C13.2012 42.2136 12.5248 42.2075 11.8486 42.2075C11.5282 42.2075 11.5282 42.2075 11.4895 42.5323C11.4794 42.6145 11.4712 42.6967 11.4559 42.7779C11.3858 43.1351 11.2882 43.4832 10.9495 43.6851C10.3556 44.0394 9.71391 43.7572 9.47592 43.0398C9.2918 42.4846 9.27964 41.9062 9.26434 41.3277C9.25927 41.1654 9.31724 41.1339 9.4657 41.136C10.2102 41.1421 10.9556 41.139 11.7001 41.139C12.4527 41.139 13.2042 41.138 13.9568 41.139C14.0544 41.139 14.146 41.1562 14.148 41.002C14.1581 40.1211 14.1592 39.2413 13.9466 38.3777Z" fill="#98A0A6"/>
<path id="Fill 42" fill-rule="evenodd" clip-rule="evenodd" d="M21.8323 39.4352C21.4667 39.4351 21.1008 39.4301 20.7353 39.4377C20.5979 39.4406 20.5615 39.3928 20.5585 39.2592C20.5513 38.9292 20.5307 38.5995 20.4153 38.2836C20.2544 37.8432 19.9549 37.6334 19.4703 37.6298C18.9557 37.6261 18.6313 37.8306 18.4727 38.2733C18.3101 38.7268 18.2995 39.2022 18.2784 39.6771C18.2392 40.5581 18.2687 41.4371 18.3342 42.3154C18.3553 42.5969 18.4048 42.874 18.4885 43.1448C18.6068 43.5271 18.8377 43.7811 19.2567 43.8203C19.706 43.8626 20.0726 43.7281 20.3095 43.3212C20.5282 42.9457 20.5756 42.528 20.5949 42.108C20.6023 41.9497 20.6546 41.9151 20.8025 41.9165C21.5199 41.9233 22.2376 41.9186 22.9552 41.9208C23.0362 41.921 23.1495 41.8829 23.1474 42.0329C23.135 42.9345 22.9691 43.787 22.3309 44.4785C21.9302 44.9125 21.418 45.16 20.8534 45.3027C19.9559 45.5296 19.0541 45.5363 18.1503 45.3343C16.9095 45.0571 16.2037 44.2636 15.9258 43.0516C15.7179 42.1447 15.7142 41.2236 15.7195 40.3012C15.723 39.6947 15.7651 39.0929 15.8872 38.4971C16.1798 37.0682 17.1018 36.218 18.5579 36.0568C19.4203 35.9612 20.2784 35.9662 21.1151 36.2412C22.2379 36.61 22.8481 37.4072 23.0493 38.5465C23.0864 38.7573 23.0915 38.9705 23.1102 39.1827C23.127 39.3738 23.0781 39.4517 22.867 39.4402C22.5231 39.4215 22.1773 39.4352 21.8323 39.4352Z" fill="#98A0A6"/>
<path id="Fill 44" fill-rule="evenodd" clip-rule="evenodd" d="M4.46202 40.5024C4.46202 41.3288 4.45381 42.1552 4.46485 42.9814C4.47224 43.5342 4.69046 43.7331 5.24522 43.7367C5.39413 43.7378 5.59855 43.6768 5.67808 43.7507C5.77842 43.844 5.70822 44.0495 5.71061 44.2062C5.71538 44.516 5.71247 44.826 5.71202 45.1359C5.71187 45.2112 5.72299 45.2909 5.60832 45.2996C4.89346 45.3543 4.17777 45.4353 3.46731 45.265C2.48267 45.0291 1.90053 44.2954 1.89896 43.2831C1.8962 41.5132 1.89523 39.7433 1.90255 37.9733C1.90337 37.789 1.85405 37.7326 1.67202 37.7463C1.45924 37.7624 1.24423 37.7469 1.03041 37.7518C0.932831 37.7541 0.897393 37.7191 0.898139 37.6208C0.901795 37.187 0.902616 36.7531 0.898065 36.3193C0.896946 36.2104 0.934994 36.175 1.04213 36.1778C1.27668 36.1838 1.51154 36.1745 1.74602 36.1816C1.8642 36.1851 1.9018 36.1422 1.90008 36.0266C1.89486 35.6548 1.90292 35.2827 1.89546 34.911C1.893 34.7899 1.93149 34.7265 2.04422 34.6771C2.79572 34.3482 3.54617 34.0164 4.29214 33.6753C4.45396 33.6013 4.45724 33.6641 4.45665 33.7945C4.45292 34.5245 4.45874 35.2546 4.45113 35.9845C4.44956 36.1376 4.49089 36.1891 4.64808 36.1833C4.96508 36.1717 5.28305 36.1854 5.60034 36.1774C5.73769 36.1739 5.77924 36.223 5.77708 36.3567C5.77037 36.7628 5.76999 37.1693 5.77745 37.5755C5.77984 37.7076 5.74604 37.7577 5.60482 37.7531C5.28767 37.7431 4.96956 37.7609 4.65278 37.746C4.47649 37.7378 4.45068 37.8098 4.45165 37.9612C4.45747 38.8082 4.45448 39.6553 4.45448 40.5024H4.46202Z" fill="#98A0A6"/>
<path id="Fill 46" fill-rule="evenodd" clip-rule="evenodd" d="M50.7064 41.6422C50.6943 42.0167 50.7421 42.443 50.6272 42.8631C50.3606 43.8475 49.4505 44.5741 48.4722 44.5771C47.6229 44.5791 47.0199 44.0779 46.8694 43.2415C46.8175 42.9554 46.7942 42.6662 46.843 42.38C46.9954 41.4901 47.4907 41.0049 48.4365 40.805C49.1424 40.6558 49.8583 40.6558 50.5733 40.6376C50.6932 40.6345 50.7095 40.6904 50.7075 40.7877C50.7044 41.0557 50.7064 41.3236 50.7064 41.6422ZM51.8895 45.1252C51.8508 44.7071 51.8101 44.288 51.8051 43.8699C51.7919 42.857 51.799 41.8443 51.7969 40.8325C51.7959 39.9445 51.8101 39.0555 51.7868 38.1675C51.7562 37.0796 51.1491 36.3358 50.0965 36.1105C49.2778 35.935 48.452 35.9451 47.6425 36.1897C46.6397 36.492 46.0356 37.2471 45.94 38.2761C45.9258 38.4325 45.9818 38.4507 46.1068 38.4477C46.3692 38.4426 46.6316 38.4355 46.8941 38.4497C47.0628 38.4588 47.1004 38.3938 47.1096 38.2385C47.134 37.8428 47.2927 37.5038 47.613 37.2593C48.1256 36.8696 48.7134 36.83 49.3256 36.9122C50.0345 37.0076 50.4544 37.4187 50.6162 38.0975C50.7393 38.612 50.7047 39.1377 50.7077 39.6604C50.7087 39.777 50.6324 39.77 50.5561 39.774C50.0528 39.7994 49.5504 39.8207 49.048 39.8532C48.4622 39.8917 47.8826 39.9781 47.3283 40.182C46.5157 40.4803 45.9594 41.0263 45.757 41.8798C45.6014 42.5394 45.6085 43.2021 45.82 43.8547C46.0306 44.5062 46.4373 44.9821 47.07 45.2581C48.1133 45.7138 49.5565 45.4418 50.3589 44.6361C50.4931 44.5021 50.6121 44.3539 50.7738 44.1723C50.7738 44.5092 50.7778 44.8015 50.7718 45.0927C50.7687 45.2175 50.7922 45.2825 50.9406 45.2754C51.2091 45.2642 51.4786 45.2683 51.7481 45.2744C51.861 45.2764 51.9017 45.2551 51.8895 45.1252Z" fill="#98A0A6"/>
<path id="Fill 48" fill-rule="evenodd" clip-rule="evenodd" d="M34.313 42.5844C34.4783 42.5844 34.6783 42.5269 34.7996 42.5997C34.9363 42.6818 34.8368 42.9022 34.8685 43.0593C34.8982 43.2075 34.9094 43.3593 34.941 43.507C35.0668 44.096 35.4067 44.4754 36.0157 44.5896C36.4088 44.6633 36.8018 44.6694 37.18 44.5359C37.8937 44.2838 38.0793 43.654 38.0674 42.9913C38.0565 42.3868 37.7466 41.9425 37.2663 41.597C36.7538 41.2283 36.1657 40.9982 35.6207 40.6892C35.3624 40.5428 35.1117 40.3865 34.8777 40.2036C33.9127 39.4486 33.7873 38.2123 34.1638 37.2495C34.3661 36.7319 34.7766 36.4079 35.291 36.2228C35.9673 35.9796 36.6679 35.9393 37.3698 36.0646C38.2555 36.2227 38.855 36.8691 39.033 37.8196C39.0721 38.0285 39.0861 38.2419 39.1134 38.453C39.1309 38.5884 39.0931 38.6567 38.937 38.6498C38.6891 38.6389 38.4401 38.6412 38.192 38.6501C38.0761 38.6543 38.0318 38.6119 38.0219 38.502C38.0073 38.3379 37.9914 38.1732 37.9617 38.0113C37.8322 37.3013 37.4359 36.9438 36.7152 36.8835C36.2604 36.8454 35.8282 36.9108 35.4778 37.2289C34.9557 37.7027 34.9276 38.5752 35.4018 39.1393C35.7205 39.5184 36.1435 39.7491 36.5745 39.9689C37.0777 40.2255 37.5965 40.4532 38.0617 40.7795C39.3366 41.6739 39.5698 43.6095 38.5346 44.7295C38.2561 45.0309 37.9069 45.2172 37.514 45.3281C36.6991 45.5579 35.8921 45.5342 35.0991 45.2378C34.4638 45.0003 34.0847 44.5254 33.897 43.8867C33.7894 43.521 33.7539 43.1457 33.739 42.766C33.7326 42.6045 33.7909 42.5604 33.9407 42.5738C34.0639 42.5848 34.1888 42.576 34.313 42.576C34.313 42.5788 34.313 42.5817 34.313 42.5844Z" fill="#98A0A6"/>
<path id="Fill 50" fill-rule="evenodd" clip-rule="evenodd" d="M59.3853 42.5757C59.5284 42.589 59.7461 42.5049 59.8592 42.6069C59.9733 42.71 59.8961 42.9324 59.9144 43.1017C59.9373 43.3142 59.9701 43.5248 60.0404 43.7267C60.2187 44.2386 60.5897 44.5196 61.1185 44.6032C61.3856 44.6454 61.6538 44.6478 61.9223 44.6111C62.5812 44.5209 63.0194 44.0447 63.0971 43.361C63.1821 42.6121 62.9208 42.0287 62.3051 41.5957C61.9482 41.3447 61.56 41.1507 61.1718 40.9555C60.6786 40.7077 60.1899 40.4536 59.7753 40.079C58.9658 39.3479 58.7595 37.9366 59.3313 37.0072C59.553 36.6468 59.8715 36.4024 60.2618 36.2528C60.9753 35.9792 61.7166 35.9204 62.4573 36.0778C63.3734 36.2724 63.9332 36.9237 64.0884 37.887C64.1214 38.0915 64.1375 38.2966 64.1454 38.5033C64.1494 38.6092 64.1119 38.6515 64.0029 38.6493C63.7408 38.6441 63.4782 38.6418 63.2163 38.6493C63.0955 38.6528 63.0601 38.6053 63.0611 38.4933C63.0628 38.2999 63.0255 38.1106 62.9832 37.9223C62.8482 37.3227 62.5354 37.0207 61.929 36.9144C61.4279 36.8265 60.9464 36.8604 60.5431 37.21C59.9062 37.7619 59.9763 38.8037 60.6812 39.3865C60.9268 39.5896 61.1974 39.7538 61.4805 39.8988C61.8855 40.1062 62.296 40.3035 62.6938 40.524C63.2847 40.8513 63.8146 41.2633 64.0343 41.9264C64.2836 42.6791 64.2721 43.448 63.9465 44.1843C63.6953 44.7521 63.2398 45.1091 62.6542 45.2976C61.8836 45.5456 61.1069 45.5399 60.3342 45.3087C59.4187 45.0347 58.982 44.3649 58.8421 43.4645C58.8094 43.2544 58.8105 43.0393 58.7851 42.8278C58.7622 42.6379 58.8146 42.5427 59.0263 42.573C59.1345 42.5885 59.2468 42.5757 59.3853 42.5757Z" fill="#98A0A6"/>
<path id="Fill 52" fill-rule="evenodd" clip-rule="evenodd" d="M41.703 40.4344C41.7029 39.3738 41.6993 38.3132 41.7067 37.2527C41.7078 37.0871 41.6583 37.0408 41.4967 37.0456C41.1313 37.0565 40.7653 37.0456 40.3995 37.0509C40.2871 37.0524 40.2365 37.0249 40.2424 36.9014C40.2515 36.7159 40.25 36.5294 40.2412 36.3438C40.2353 36.2179 40.2786 36.1752 40.4062 36.1782C40.7235 36.1856 41.0411 36.1801 41.3586 36.18C41.7029 36.1799 41.7029 36.1801 41.7029 35.826C41.703 35.3783 41.7075 34.9306 41.7004 34.4831C41.6984 34.353 41.7407 34.2861 41.8642 34.2392C42.1088 34.1463 42.3469 34.036 42.5872 33.9316C42.8004 33.839 42.8001 33.8383 42.8 34.0805C42.7999 34.6935 42.7997 35.3064 42.7997 35.9194C42.7997 36.1797 42.7998 36.1798 43.0705 36.1798C43.5329 36.18 43.9954 36.1839 44.4578 36.1775C44.5891 36.1756 44.6458 36.2086 44.6374 36.3496C44.6267 36.528 44.6291 36.7079 44.6376 36.8866C44.6438 37.0133 44.5979 37.0529 44.4715 37.0514C43.9816 37.0453 43.4913 37.056 43.0016 37.0448C42.8333 37.041 42.7958 37.0969 42.7964 37.2554C42.804 39.2388 42.805 41.2222 42.8075 43.2056C42.8077 43.4129 42.8258 43.6183 42.8758 43.8197C42.9631 44.1707 43.1516 44.3323 43.5164 44.3539C43.84 44.373 44.1649 44.3803 44.4868 44.3322C44.595 44.3161 44.6397 44.3356 44.637 44.4518C44.6317 44.679 44.6344 44.9063 44.6359 45.1336C44.6364 45.2103 44.6247 45.2635 44.528 45.2711C43.9156 45.3191 43.3008 45.3803 42.7004 45.2C42.1098 45.0228 41.7818 44.5806 41.7298 43.9243C41.7131 43.712 41.7047 43.4986 41.7042 43.2856C41.7014 42.3352 41.703 41.3848 41.703 40.4344Z" fill="#98A0A6"/>
<path id="Fill 54" fill-rule="evenodd" clip-rule="evenodd" d="M55.2394 37.3517C55.4604 37.0699 55.6716 36.8044 55.9494 36.5966C56.4449 36.2261 57.0024 36.0382 57.6186 36.0067C57.757 35.9995 57.7991 36.0459 57.7944 36.1807C57.7858 36.4351 57.7851 36.6904 57.7952 36.9448C57.8008 37.0852 57.7557 37.1044 57.6199 37.101C56.9564 37.0846 56.3438 37.2374 55.8615 37.7262C55.4209 38.1727 55.2461 38.7344 55.2432 39.3444C55.2344 41.2381 55.2364 43.1319 55.2442 45.0255C55.2451 45.2241 55.1984 45.2924 54.9951 45.2767C54.7619 45.2587 54.526 45.2691 54.2916 45.2756C54.1833 45.2786 54.1404 45.2408 54.1483 45.1331C54.1544 45.051 54.1498 44.968 54.1498 44.8853C54.1498 42.062 54.1515 39.2387 54.1456 36.4154C54.1453 36.2296 54.1877 36.1605 54.3826 36.1759C54.6089 36.1937 54.838 36.1866 55.0653 36.1775C55.1998 36.1721 55.2464 36.2137 55.2424 36.3522C55.2331 36.6852 55.2394 37.0185 55.2394 37.3517Z" fill="#98A0A6"/>
<path id="Fill 30" fill-rule="evenodd" clip-rule="evenodd" d="M20.1118 30.8493C19.9879 30.8518 19.864 30.8567 19.7401 30.8567C13.641 30.857 7.54196 30.857 1.44285 30.8571H1.13973L1.1087 30.8057C1.19874 30.7256 1.2923 30.6492 1.37824 30.5651C2.77231 29.2016 4.16534 27.8372 5.55858 26.473C7.08963 24.9738 8.62037 23.4743 10.1519 21.9756C11.4864 20.6699 12.822 19.3653 14.157 18.0601C15.4871 16.7597 16.8167 15.4587 18.1472 14.1587C18.5758 13.7398 19.0131 13.3294 19.4324 12.9014C19.561 12.77 19.6368 12.7824 19.771 12.8859C21.7516 14.4129 23.7362 15.9347 25.7204 17.4572C26.0264 17.692 26.3348 17.9238 26.6421 18.1569C26.6576 18.1735 26.673 18.1902 26.6884 18.2068C26.6821 18.2398 26.6788 18.274 26.6689 18.306C25.7239 21.3374 24.7773 24.3683 23.8346 27.4005C23.7207 27.7668 23.5787 28.1252 23.509 28.5045C22.614 29.1139 21.7167 29.7199 20.8257 30.3349C20.5846 30.5014 20.3236 30.6418 20.1118 30.8493Z" fill="#98A0A6"/>
</g>
</svg>
