<svg width="74" height="52" viewBox="0 0 74 52" fill="none" xmlns="http://www.w3.org/2000/svg">
<g id="European Commission">
<path id="Fill 98" fill-rule="evenodd" clip-rule="evenodd" d="M20.8491 45.46C20.924 45.3608 21.087 45.3103 21.3353 45.3103C21.5874 45.3103 21.7531 45.3605 21.8288 45.4582C21.8832 45.5285 21.948 45.7067 21.948 46.1564C21.948 46.6098 21.8822 46.7883 21.8267 46.859C21.7496 46.9572 21.5843 47.0068 21.3353 47.0068C21.0897 47.0068 20.9272 46.9564 20.8511 46.8569C20.7723 46.7536 20.7323 46.5197 20.7323 46.1609C20.7323 45.7993 20.7717 45.5629 20.8491 45.46ZM21.3356 44.9258C20.9349 44.9258 20.6563 45.0131 20.5059 45.1847C20.3546 45.357 20.2813 45.6761 20.2813 46.1609C20.2813 46.6429 20.3553 46.9603 20.508 47.1325C20.6597 47.3045 20.9388 47.3919 21.3356 47.3919C21.7389 47.3919 22.0203 47.3059 22.1724 47.1353C22.3247 46.9641 22.399 46.6446 22.399 46.1564C22.399 45.6719 22.324 45.3524 22.1699 45.1823C22.0164 45.0124 21.736 44.9258 21.3356 44.9258Z" fill="#98A0A6"/>
<path id="Fill 100" fill-rule="evenodd" clip-rule="evenodd" d="M37.879 45.4601C37.9525 45.361 38.1168 45.3105 38.3647 45.3105C38.6159 45.3105 38.7822 45.3606 38.8583 45.4583C38.9134 45.5287 38.9775 45.7069 38.9775 46.1565C38.9775 46.6099 38.9113 46.7885 38.8565 46.8592C38.778 46.9573 38.6142 47.007 38.3647 47.007C38.1196 47.007 37.9563 46.9566 37.88 46.857C37.8015 46.7537 37.761 46.5195 37.761 46.1611C37.761 45.7995 37.8008 45.5635 37.879 45.4601ZM38.3638 44.9258C37.9637 44.9258 37.6834 45.0131 37.5334 45.1847C37.3834 45.357 37.3099 45.6761 37.3099 46.161C37.3099 46.6429 37.3845 46.9603 37.5365 47.1326C37.6883 47.3045 37.9669 47.3919 38.3638 47.3919C38.7677 47.3919 39.0481 47.306 39.2002 47.1353C39.3525 46.9642 39.4272 46.6447 39.4272 46.1564C39.4272 45.6719 39.3519 45.3535 39.1971 45.1823C39.0445 45.0124 38.7642 44.9258 38.3638 44.9258Z" fill="#98A0A6"/>
<path id="Fill 102" fill-rule="evenodd" clip-rule="evenodd" d="M35.5084 39.705C35.3194 39.705 35.1642 39.7266 35.0459 39.7694C34.9416 39.807 34.8524 39.8644 34.7777 39.9402V39.7443H34.3488V42.1273H34.8001V40.6785C34.8001 40.4661 34.8513 40.3133 34.9546 40.2252C35.0595 40.1352 35.2224 40.0889 35.4379 40.0889C35.7083 40.0889 35.8139 40.14 35.8554 40.1824C35.897 40.2256 35.9461 40.3325 35.9461 40.6001V42.1273H36.3963V40.5653C36.3963 40.2368 36.3301 40.0158 36.1951 39.8901C36.0598 39.7652 35.8363 39.705 35.5084 39.705Z" fill="#98A0A6"/>
<path id="Fill 104" fill-rule="evenodd" clip-rule="evenodd" d="M25.4512 44.9214C25.2733 44.9214 25.1097 44.9537 24.9678 45.0177C24.8506 45.0693 24.7536 45.1485 24.678 45.252C24.6169 45.1395 24.5199 45.0546 24.3888 44.9996C24.2664 44.9481 24.1158 44.9214 23.9411 44.9214C23.7688 44.9214 23.6111 44.9537 23.4729 45.0177C23.3813 45.0598 23.3028 45.119 23.2372 45.1952V44.9655H22.8086V47.3477H23.2592V45.987C23.2592 45.7357 23.301 45.5564 23.3833 45.4549C23.4625 45.356 23.6212 45.3059 23.8541 45.3059C24.1066 45.3059 24.2082 45.357 24.2493 45.3995C24.2905 45.4423 24.34 45.5453 24.34 45.791V47.3477H24.7902V45.7862C24.7902 45.6389 24.8282 45.5265 24.9022 45.4527C24.9995 45.3556 25.1694 45.3059 25.4071 45.3059C25.5928 45.3059 25.7183 45.3372 25.779 45.3978C25.8399 45.4587 25.8714 45.5826 25.8714 45.7645V47.3477H26.322V45.7862C26.322 45.4777 26.2551 45.2544 26.1219 45.1214C25.9886 44.9891 25.7629 44.9214 25.4512 44.9214Z" fill="#98A0A6"/>
<path id="Fill 106" fill-rule="evenodd" clip-rule="evenodd" d="M22.9921 40.5567C22.9921 40.226 23.1466 40.0723 23.4779 40.0723C23.6041 40.0723 23.6953 40.0952 23.7479 40.1404C23.7981 40.1835 23.824 40.2656 23.824 40.3827V40.6033H24.2665V40.4171C24.2665 39.9401 24.0178 39.688 23.5476 39.688C23.4067 39.688 23.276 39.7166 23.1588 39.7733C23.0908 39.806 23.0304 39.8495 22.9786 39.9016L22.9862 39.7444H22.5415V42.1274H22.9921V40.5567Z" fill="#98A0A6"/>
<path id="Fill 108" fill-rule="evenodd" clip-rule="evenodd" d="M35.7792 46.0795C35.6262 45.9785 35.3925 45.9276 35.0838 45.9276C34.7466 45.9276 34.6165 45.8886 34.5666 45.857C34.5007 45.8145 34.4672 45.7269 34.4672 45.5953C34.4672 45.4763 34.4983 45.4008 34.5625 45.3614C34.6112 45.3325 34.7288 45.2971 35.012 45.2971C35.2928 45.2971 35.4134 45.342 35.4651 45.3795C35.5201 45.4182 35.548 45.4948 35.548 45.6078V45.6586H35.999V45.5257C35.999 45.2839 35.892 45.1144 35.6795 45.0218C35.5289 44.957 35.3004 44.9258 34.9792 44.9258C34.6301 44.9258 34.3911 44.9775 34.2468 45.0838C34.0999 45.1919 34.0254 45.3765 34.0254 45.6301C34.0254 45.9043 34.1342 46.1 34.3482 46.2099C34.5024 46.29 34.7306 46.3289 35.0465 46.3289C35.253 46.3289 35.4008 46.3575 35.486 46.4125C35.5661 46.464 35.6045 46.5395 35.6045 46.6446C35.6045 46.8023 35.5707 46.9038 35.5041 46.9477C35.4531 46.9808 35.33 47.0205 35.0298 47.0205C34.801 47.0205 34.6454 46.9913 34.5659 46.9341C34.4923 46.8803 34.4547 46.7605 34.4547 46.5789V46.5281H34.0254V46.5789C34.0254 46.908 34.1121 47.1353 34.2831 47.2523C34.4211 47.3463 34.6716 47.3918 35.0494 47.3918C35.4117 47.3918 35.6586 47.3463 35.8048 47.253C35.9714 47.1478 36.0555 46.9502 36.0555 46.6659C36.0555 46.3965 35.9627 46.1991 35.7792 46.0795Z" fill="#98A0A6"/>
<path id="Fill 110" fill-rule="evenodd" clip-rule="evenodd" d="M28.4714 41.5901C28.3995 41.7199 28.2276 41.7852 27.9598 41.7852C27.7121 41.7852 27.5489 41.7199 27.4742 41.5894C27.415 41.485 27.3846 41.2604 27.3846 40.9218C27.3846 40.4948 27.4285 40.3285 27.4655 40.2645C27.5343 40.1454 27.7068 40.0845 27.9775 40.0845C28.2419 40.0845 28.4124 40.1523 28.4839 40.2846C28.5173 40.3469 28.5568 40.5077 28.5568 40.9218C28.5568 41.2629 28.5282 41.4874 28.4714 41.5901ZM27.3848 41.9588C27.4559 42.0297 27.5415 42.0819 27.6401 42.1153C27.7464 42.1515 27.8933 42.1707 28.0757 42.1707C28.46 42.1707 28.7244 42.0471 28.8622 41.8046C28.9603 41.6298 29.008 41.3428 29.008 40.9269C29.008 40.4978 28.9567 40.2072 28.8521 40.038C28.715 39.8138 28.4419 39.7005 28.0408 39.7005C27.8689 39.7005 27.7186 39.7265 27.5937 39.7784C27.5107 39.8128 27.4361 39.864 27.3698 39.9319L27.3785 39.7443H26.9342V43.1107H27.3848V41.9588Z" fill="#98A0A6"/>
<path id="Fill 112" fill-rule="evenodd" clip-rule="evenodd" d="M19.6006 46.2086C19.6006 46.5142 19.5437 46.7177 19.4322 46.8144C19.3181 46.9133 19.0747 46.9637 18.707 46.9637C18.344 46.9637 18.1034 46.8855 17.9913 46.7316C17.876 46.5733 17.8174 46.2186 17.8174 45.6775C17.8174 45.1366 17.8773 44.7781 17.9956 44.6122C18.1103 44.4514 18.3492 44.3703 18.705 44.3703C19.059 44.3703 19.2895 44.4194 19.3896 44.5168C19.4433 44.5687 19.5152 44.7072 19.5532 45.0736L19.5578 45.1189L20.0079 45.1237V45.0726C20.0079 44.6682 19.9239 44.3817 19.7568 44.2217C19.5682 44.0397 19.2236 43.9512 18.7053 43.9512C18.1826 43.9512 17.8244 44.0657 17.6398 44.2912C17.4442 44.5325 17.3493 44.9852 17.3493 45.6775C17.3493 46.3731 17.4459 46.8249 17.6451 47.0605C17.8257 47.2745 18.1826 47.3828 18.705 47.3828C19.2317 47.3828 19.5797 47.3006 19.7688 47.1301C19.9564 46.9612 20.0512 46.6508 20.0512 46.2086V46.1577H19.6006V46.2086Z" fill="#98A0A6"/>
<path id="Fill 114" fill-rule="evenodd" clip-rule="evenodd" d="M41.6776 45.1108C41.5433 44.9863 41.318 44.9258 40.9916 44.9258C40.8029 44.9258 40.647 44.9473 40.528 44.9898C40.4245 45.028 40.3348 45.0858 40.2612 45.1614V44.9654H39.8318V47.3476H40.2819V45.8998C40.2819 45.6869 40.3348 45.5344 40.4377 45.446C40.5424 45.3562 40.7045 45.3103 40.9207 45.3103C41.1917 45.3103 41.2971 45.3608 41.3376 45.4039C41.3793 45.4464 41.4292 45.5543 41.4292 45.8208V47.3476H41.8796V45.786C41.8796 45.4582 41.8133 45.2372 41.6776 45.1108Z" fill="#98A0A6"/>
<path id="Fill 116" fill-rule="evenodd" clip-rule="evenodd" d="M19.6623 41.6992H17.9303V40.6161H19.5928V40.1974H17.9303V39.1795H19.6707V38.7601H17.4665V42.1273H19.6623V41.6992Z" fill="#98A0A6"/>
<path id="Fill 118" fill-rule="evenodd" clip-rule="evenodd" d="M21.3717 42.1022C21.4718 42.065 21.5611 42.0055 21.6392 41.9223V42.1274H22.0591V39.7444H21.6089V41.1396C21.6089 41.3871 21.5657 41.5572 21.4823 41.6474C21.3986 41.7365 21.2294 41.7817 20.9797 41.7817C20.7893 41.7817 20.6623 41.7507 20.6021 41.6898C20.5414 41.6289 20.5106 41.5026 20.5106 41.3146V39.7444H20.0596V41.3924C20.0596 41.6766 20.1302 41.8812 20.2693 42.002C20.3993 42.112 20.6072 42.1662 20.9047 42.1662C21.1018 42.1662 21.2591 42.1447 21.3717 42.1022Z" fill="#98A0A6"/>
<path id="Fill 120" fill-rule="evenodd" clip-rule="evenodd" d="M36.4465 47.3477H36.8971V44.9655H36.4465V47.3477Z" fill="#98A0A6"/>
<path id="Fill 122" fill-rule="evenodd" clip-rule="evenodd" d="M33.4372 46.0795C33.2842 45.9785 33.0497 45.9276 32.7421 45.9276C32.4038 45.9276 32.2734 45.8886 32.2239 45.857C32.1583 45.8145 32.1248 45.7269 32.1248 45.5953C32.1248 45.4763 32.1562 45.4008 32.2193 45.3614C32.2689 45.3325 32.3867 45.2971 32.6692 45.2971C32.9503 45.2971 33.0702 45.342 33.1223 45.3795C33.1775 45.4182 33.2057 45.4948 33.2057 45.6078V45.6586H33.6563V45.5257C33.6563 45.2839 33.5492 45.1144 33.3375 45.0218C33.1872 44.957 32.9576 44.9258 32.6368 44.9258C32.288 44.9258 32.0484 44.9775 31.9044 45.0838C31.7572 45.1919 31.6829 45.3765 31.6829 45.6301C31.6829 45.9043 31.7917 46.1 32.0055 46.2099C32.1593 46.29 32.3881 46.3289 32.7038 46.3289C32.9106 46.3289 33.0588 46.3575 33.1443 46.4125C33.2235 46.464 33.2621 46.5395 33.2621 46.6446C33.2621 46.8023 33.2286 46.9038 33.1613 46.9477C33.1101 46.9808 32.9866 47.0205 32.6867 47.0205C32.4589 47.0205 32.3024 46.9913 32.2235 46.9341C32.1493 46.8803 32.1119 46.7605 32.1119 46.5789V46.5281H31.6829V46.5789C31.6829 46.908 31.7694 47.1353 31.9407 47.2523C32.0784 47.3463 32.3291 47.3918 32.7066 47.3918C33.069 47.3918 33.3161 47.3463 33.4626 47.253C33.6287 47.1478 33.7128 46.9502 33.7128 46.6659C33.7128 46.3965 33.6203 46.1991 33.4372 46.0795Z" fill="#98A0A6"/>
<path id="Fill 123" fill-rule="evenodd" clip-rule="evenodd" d="M33.4205 41.4103C33.4205 41.5861 33.3613 41.6964 33.2385 41.7462C33.1554 41.7809 32.9789 41.799 32.7146 41.799C32.5312 41.799 32.4043 41.7678 32.3355 41.7071C32.2688 41.6478 32.2351 41.529 32.2351 41.3532C32.2351 41.2141 32.2717 41.1219 32.3467 41.0738C32.3906 41.0456 32.4897 41.0125 32.7104 41.0125C33.0952 41.0125 33.2468 41.0505 33.3057 41.0821C33.3818 41.1239 33.4205 41.2338 33.4205 41.4103ZM33.5865 39.8481C33.4396 39.752 33.1893 39.705 32.8213 39.705C32.4983 39.705 32.2776 39.7398 32.1465 39.8105C31.9581 39.9128 31.8629 40.1184 31.8629 40.4219V40.4724H32.3135V40.3565C32.3135 40.2341 32.3432 40.1539 32.4024 40.1195C32.4481 40.0916 32.5552 40.0589 32.8035 40.0589C33.1442 40.0589 33.2718 40.1097 33.3193 40.1525C33.3657 40.1939 33.4205 40.3116 33.4205 40.635V40.8054C33.3758 40.7616 33.3238 40.7286 33.2649 40.7056C33.161 40.6655 32.9786 40.6453 32.708 40.6453C32.3982 40.6453 32.1806 40.69 32.0432 40.7797C31.8716 40.8911 31.7841 41.0957 31.7841 41.3884C31.7841 41.6981 31.8726 41.9142 32.0466 42.0308C32.1872 42.1248 32.4133 42.1707 32.7382 42.1707C32.9887 42.1707 33.1603 42.1502 33.2636 42.1081C33.3284 42.0813 33.3905 42.0343 33.447 41.9664L33.4396 42.1273H33.8711V40.5605C33.8711 40.2104 33.7756 39.9706 33.5865 39.8481Z" fill="#98A0A6"/>
<path id="Fill 124" fill-rule="evenodd" clip-rule="evenodd" d="M30.4081 40.0801C30.6387 40.0801 30.797 40.1271 30.879 40.2176C30.9571 40.3053 30.999 40.4612 31.0045 40.6847H29.8163C29.8219 40.4608 29.863 40.3046 29.9402 40.2176C30.0203 40.1271 30.1783 40.0801 30.4081 40.0801ZM30.4112 39.705C30.0371 39.705 29.7657 39.7972 29.6053 39.9788C29.4442 40.1616 29.3657 40.4727 29.3657 40.931C29.3657 41.4096 29.4389 41.7277 29.5893 41.9049C29.7396 42.0809 30.0179 42.1707 30.4158 42.1707C30.7869 42.1707 31.0366 42.1266 31.1796 42.0361C31.3637 41.9223 31.4569 41.7016 31.4569 41.3794V41.3285H31.0059V41.4532C31.0059 41.5941 30.9738 41.6859 30.9108 41.7263C30.8616 41.7573 30.7361 41.7948 30.4158 41.7948C30.1647 41.7948 30.0016 41.7465 29.9297 41.6515C29.8586 41.5572 29.8208 41.3556 29.8166 41.0512H31.4569V40.8266C31.4569 40.4202 31.3739 40.1285 31.2113 39.9598C31.0478 39.7906 30.7785 39.705 30.4112 39.705Z" fill="#98A0A6"/>
<path id="Fill 125" fill-rule="evenodd" clip-rule="evenodd" d="M24.9719 40.2385C25.0462 40.1401 25.2098 40.0889 25.4584 40.0889C25.7095 40.0889 25.8756 40.1391 25.9513 40.2378C26.0059 40.3075 26.0705 40.4857 26.0705 40.9357C26.0705 41.3884 26.0046 41.5673 25.9494 41.6377C25.8725 41.7361 25.7064 41.7855 25.4584 41.7855C25.2129 41.7855 25.0497 41.7357 24.974 41.6359C24.8951 41.5329 24.855 41.2983 24.855 40.9406C24.855 40.5778 24.8942 40.3426 24.9719 40.2385ZM25.4594 39.705C25.0587 39.705 24.7797 39.792 24.629 39.9633C24.478 40.1359 24.4048 40.4553 24.4048 40.9406C24.4048 41.4214 24.479 41.7396 24.6311 41.9115C24.7831 42.0831 25.0618 42.1707 25.4594 42.1707C25.8681 42.1707 26.1416 42.0865 26.2958 41.9139C26.4478 41.7434 26.5224 41.4232 26.5224 40.9357C26.5224 40.4509 26.447 40.132 26.2933 39.9612C26.1398 39.791 25.8591 39.705 25.4594 39.705Z" fill="#98A0A6"/>
<path id="Fill 126" fill-rule="evenodd" clip-rule="evenodd" d="M29.4566 44.9214C29.2784 44.9214 29.1158 44.9537 28.9732 45.0177C28.8567 45.0699 28.7595 45.1485 28.6845 45.252C28.6224 45.1395 28.5254 45.0546 28.3946 44.9996C28.2722 44.9481 28.1219 44.9214 27.9475 44.9214C27.7738 44.9214 27.6169 44.9537 27.4784 45.0177C27.3871 45.0598 27.3086 45.119 27.2433 45.1952V44.9655H26.8141V47.3477H27.265V45.987C27.265 45.7357 27.3064 45.5564 27.3887 45.4549C27.4687 45.356 27.6271 45.3059 27.86 45.3059C28.1125 45.3059 28.2144 45.357 28.2551 45.3995C28.2963 45.4423 28.3458 45.545 28.3458 45.791V47.3477H28.7968V45.7862C28.7968 45.6389 28.8341 45.5265 28.9084 45.4527C29.0057 45.3556 29.1752 45.3059 29.4131 45.3059C29.5985 45.3059 29.7238 45.3372 29.7848 45.3978C29.8462 45.4587 29.8772 45.5819 29.8772 45.7645V47.3477H30.3278V45.7862C30.3278 45.4777 30.2602 45.2544 30.1277 45.1214C29.9948 44.9891 29.7688 44.9214 29.4566 44.9214Z" fill="#98A0A6"/>
<path id="Fill 127" fill-rule="evenodd" clip-rule="evenodd" d="M30.8225 47.3477H31.2728V44.9655H30.8225V47.3477Z" fill="#98A0A6"/>
<path id="Fill 128" fill-rule="evenodd" clip-rule="evenodd" d="M36.4465 44.4566H36.8971V43.9812H36.4465V44.4566Z" fill="#98A0A6"/>
<path id="Fill 129" fill-rule="evenodd" clip-rule="evenodd" d="M30.8225 44.4566H31.2728V43.9812H30.8225V44.4566Z" fill="#98A0A6"/>
<path id="Fill 130" fill-rule="evenodd" clip-rule="evenodd" d="M39.1929 27.3845L38.4688 26.8685L37.7491 27.3888L38.0164 26.5432L37.2968 26.0215L38.1868 26.0141L38.4629 25.1699L38.7434 26.0127H39.6335L38.9183 26.5402L39.1929 27.3845ZM38.2345 30.9002L37.5104 30.3859L36.7908 30.9062L37.0582 30.0605L36.34 29.5374L37.2285 29.53L37.5046 28.6873L37.7866 29.5285H38.6752L37.9615 30.0562L38.2345 30.9002ZM35.3949 20.4405L35.6682 21.2862L34.9456 20.7703L34.2245 21.2906L34.4932 20.4435L33.775 19.9218L34.6635 19.9145L34.9382 19.0717L35.2217 19.9129L36.1103 19.9145L35.3949 20.4405ZM35.6458 33.4619L34.9232 32.9461L34.202 33.4663L34.4709 32.6206L33.7527 32.0975L34.6412 32.0902L34.9173 31.2474L35.1994 32.0887L36.0879 32.0902L35.3726 32.6177L35.6458 33.4619ZM31.9354 19.5085L32.21 20.3512L31.4859 19.8368L30.7663 20.3571L31.0336 19.5114L30.3154 18.9883L31.204 18.9809L31.4801 18.1382L31.7621 18.9794L32.6506 18.9809L31.9354 19.5085ZM32.1877 34.3957L31.4637 33.8798L30.744 34.4001L31.0113 33.5545L30.2932 33.0312L31.1817 33.0254L31.4578 32.1798L31.7397 33.0225L32.6283 33.0239L31.9145 33.5516L32.1877 34.3957ZM28.3912 20.4626L28.6659 21.3067L27.9418 20.7924L27.2222 21.3126L27.4895 20.4655L26.7698 19.9438L27.6599 19.9364L27.9359 19.0924L28.2179 19.935H29.1065L28.3912 20.4626ZM28.6422 33.44L27.9182 32.9241L27.1985 33.4444L27.4657 32.5988L26.7476 32.077L27.6361 32.0697L27.9123 31.2255L28.1942 32.0668L29.0828 32.0683L28.3676 32.5958L28.6422 33.44ZM25.9108 22.96L26.184 23.8026L25.4614 23.2867L24.7417 23.807L25.009 22.9613L24.2894 22.4396L25.1794 22.4322L25.4554 21.5896L25.7361 22.4309L26.6261 22.4322L25.9108 22.96ZM26.1202 30.8796L25.3961 30.3637L24.6765 30.884L24.9439 30.0369L24.2256 29.5151L25.1142 29.5079L25.3903 28.6652L25.6723 29.5063H26.5608L25.8456 30.034L26.1202 30.8796ZM23.2895 25.9789L24.1796 25.9702L24.4542 25.126L24.7362 25.9687H25.6263L24.911 26.4977L25.1841 27.3404L24.4601 26.826L23.7404 27.3463L24.0092 26.5007L23.2895 25.9789ZM37.2285 22.5187L37.5046 21.676L37.7866 22.5172L38.6752 22.5187L37.9615 23.0463L38.2345 23.8903L37.5104 23.3745L36.7908 23.8948L37.0582 23.0492L36.34 22.5275L37.2285 22.5187ZM15.6477 36.7887H47.2727V15.7493H15.6477V36.7887Z" fill="#98A0A6"/>
<path id="Fill 131" fill-rule="evenodd" clip-rule="evenodd" d="M15.6477 51.4693H47.2728V49.7159H15.6477V51.4693Z" fill="#98A0A6"/>
<path id="Fill 132" fill-rule="evenodd" clip-rule="evenodd" d="M73.8067 36.7974C73.8042 36.6738 73.8067 36.5506 73.8067 36.431C66.3894 36.2012 57.3491 35.9611 51.6287 35.6169V36.7793C55.8142 36.829 66.6326 36.7233 73.8067 36.7974ZM73.8067 35.5559C73.8042 35.4323 73.8067 35.3095 73.8067 35.1898C66.3894 34.9601 57.3191 33.8836 51.6287 32.6809V33.8432C55.48 34.4902 66.6636 35.3391 73.8067 35.5559ZM58.4847 32.5456C61.1364 33.1735 62.0707 33.2389 64.3746 33.4498C65.4506 33.5479 72.4507 34.015 73.8067 34.095C73.8042 33.9716 73.8067 33.8483 73.8067 33.7285C73.2507 33.7132 67.4033 33.3624 64.6421 32.9823C61.8168 32.5944 61.7491 32.5679 59.1867 31.9442C57.4809 31.5287 51.6287 29.7938 51.6287 29.7938V30.9562C54.8854 31.7608 56.4486 32.0636 58.4847 32.5456ZM58.4905 30.4843C61.0593 31.3933 61.5723 31.4685 64.3746 31.7775C65.4488 31.8962 72.4507 32.5184 73.8067 32.5986C73.8042 32.4753 73.8067 32.3518 73.8067 32.2321C73.2507 32.2174 67.4033 31.6975 64.6421 31.3182C61.8168 30.9297 61.6804 30.7895 59.1867 29.9317C57.6145 29.3908 51.6287 26.8658 51.6287 26.8658V28.1316C54.763 29.2386 56.7433 29.8654 58.4905 30.4843ZM58.4905 28.4552C60.8493 29.4581 61.5572 29.7359 64.3746 30.173C65.443 30.3384 72.4507 31.0012 73.8067 31.0814C73.8042 30.9581 73.8067 30.8346 73.8067 30.7149C73.2507 30.7003 67.3161 30.1594 64.6421 29.668C61.837 29.1523 61.0935 28.8066 58.7961 27.732C57.3146 27.0391 51.6287 23.9813 51.6287 23.9813V25.3511C54.461 26.6775 56.7851 27.7302 58.4905 28.4552ZM58.4905 26.5032C60.676 27.6621 61.3236 28.0561 64.3746 28.6188C64.7307 28.6839 72.5791 29.578 73.8067 29.668C73.8042 29.5449 73.8067 29.4213 73.8067 29.3016C73.2005 29.2229 67.3161 28.5694 64.6421 28.0783C61.837 27.5628 61.0024 26.9852 58.7961 25.7347C57.3749 24.9297 51.6287 21.1151 51.6287 21.1151V22.5942C54.2193 24.0858 56.8534 25.6355 58.4905 26.5032ZM58.1569 24.3111C60.5905 25.9721 61.3236 26.3828 64.3746 26.9456C64.7307 27.0111 72.5564 28.0561 73.8067 28.181C73.8042 28.0575 73.8067 27.9339 73.8067 27.815C73.2748 27.7245 67.3161 26.916 64.6421 26.4246C61.837 25.9088 60.9407 25.503 58.9478 23.9366C57.7714 23.0118 51.6287 18.3533 51.6287 18.3533V19.8901C53.9155 21.506 56.6268 23.2669 58.1569 24.3111ZM58.0697 22.2328C60.3342 24.116 61.3303 24.5973 64.3812 25.1597C64.7374 25.2251 72.609 26.5417 73.8067 26.6774C73.8042 26.5538 73.8067 26.4307 73.8067 26.3113C73.2748 26.2208 67.1574 25.2982 64.5477 24.6996C61.7673 24.0624 61.24 23.8146 59.2475 22.2478C58.071 21.3231 51.6287 15.4005 51.6287 15.4005V17.0577C53.9225 19.0112 56.7259 21.1157 58.0697 22.2328ZM58.2029 20.4639C60.3819 22.4333 61.3303 23.0726 64.3812 23.6354C64.7374 23.7013 72.5972 24.9781 73.8067 25.1531C73.8042 25.03 73.8067 24.9067 73.8067 24.7867C73.2748 24.6962 67.1439 23.8303 64.5477 23.1751C61.7871 22.4783 60.5194 21.8118 58.8178 19.9523C58.3529 19.4436 51.6287 12.6439 51.6287 12.6439V14.4588C53.8196 16.4349 56.9066 19.2921 58.2029 20.4639ZM58.5523 18.6806C60.4374 20.7178 61.7171 21.3537 64.3454 22.0028C64.6969 22.0894 72.5972 23.5717 73.8067 23.7467C73.8042 23.6235 73.8067 23.5003 73.8067 23.3799C73.2748 23.2898 67.2729 22.3125 64.6763 21.6568C61.9159 20.9597 60.7099 19.9456 59.0085 18.0861C58.5433 17.5776 51.6287 9.63756 51.6287 9.63756V11.647C53.6993 13.723 57.3658 17.3985 58.5523 18.6806ZM58.6841 16.9421C60.6314 19.1639 61.7171 19.7468 64.3454 20.3959C64.6969 20.4829 72.5972 21.9648 73.8067 22.1398C73.8042 22.0167 73.8067 21.8931 73.8067 21.773C73.2748 21.6832 67.2401 20.7101 64.7092 19.9971C61.9682 19.2251 60.7709 18.3864 59.1292 16.3591C58.6957 15.8239 51.6287 6.7422 51.6287 6.7422V8.83909C53.2148 10.7773 57.5322 15.6291 58.6841 16.9421ZM58.9457 15.3518C60.4692 17.3791 61.7387 18.0052 63.8355 18.607C64.1831 18.7068 72.5972 20.5426 73.8067 20.718C73.8042 20.5949 73.8067 20.4709 73.8067 20.3509C73.2748 20.2611 67.1986 19.1307 64.6659 18.4221C62.4888 17.8131 60.8266 16.8014 59.5286 15.054C59.1173 14.5006 51.6287 3.8184 51.6287 3.8184V6.0294C52.9738 7.84643 57.8963 13.956 58.9457 15.3518ZM51.6289 3.36091V0.959198C51.6289 0.959198 59.3725 12.9939 59.7834 13.5472C61.0822 15.295 62.4619 16.2145 64.6396 16.8234C67.1719 17.5321 73.275 18.7683 73.8069 18.8584C73.8069 18.9785 73.8045 19.102 73.8069 19.2252C72.5974 19.0502 64.1841 17.2133 63.8357 17.1144C61.5426 16.4626 60.6364 15.9051 59.107 13.7975C58.0818 12.3838 52.974 5.17794 51.6289 3.36091Z" fill="#98A0A6"/>
<path id="Fill 133" fill-rule="evenodd" clip-rule="evenodd" d="M33.076 15.7496H33.907C34.976 14.9314 35.8713 14.1785 36.693 13.241V12.6431C36.4212 13.0583 34.7895 14.4671 33.076 15.7496ZM31.2953 14.4418C30.2654 15.0464 29.427 15.4556 28.6432 15.7497H30.3285C30.895 15.425 31.4548 15.0446 32.0713 14.5825C34.1388 13.0324 35.3929 11.7865 36.6928 10.3035V9.70562C36.313 10.286 33.5923 13.0933 31.2953 14.4418ZM0.693909 27.2966C3.34071 27.2152 10.3258 26.8633 15.648 26.587V25.5443C10.698 25.7841 3.6829 25.9394 0.693909 25.9445V27.2966ZM0.693909 29.2294C3.37003 29.1042 10.5281 28.8699 15.648 28.6058V27.5635C10.7388 27.8224 3.65745 27.8088 0.693909 27.8767V29.2294ZM32.4082 6.07623C28.967 9.14645 26.4503 9.87415 22.4947 10.4926C21.6603 10.6231 4.79133 12.5873 0.693922 12.8142V14.1771C2.31295 14.1771 19.1625 11.8851 21.9645 11.5328C28.814 10.6718 31.4481 7.89111 33.0661 6.22757C33.9128 5.35676 35.6584 3.16284 36.6926 1.60928V1.01138C36.3127 1.59186 34.3949 4.30372 32.4082 6.07623ZM31.9846 11.5916C29.0996 13.7009 26.5717 14.2898 22.4947 14.8125C21.6572 14.9201 4.79131 16.3373 0.693909 16.5641V17.927C2.02346 17.7787 9.78838 17.0253 15.648 16.4388V15.7495H22.2045C27.8408 15.0384 30.3854 13.7287 32.6423 11.743C34.5818 10.0359 35.4777 8.93338 36.6925 7.36516V6.76734C36.3127 7.34783 34.134 10.02 31.9846 11.5916ZM32.2255 8.86415C28.7055 11.7468 26.5717 12.1687 22.4947 12.6917C21.6572 12.7988 4.79131 14.5254 0.693909 14.7527V16.1156C2.70078 15.8702 19.1625 14.0125 21.9645 13.6602C28.814 12.7992 31.0206 10.8027 32.8833 9.01549C33.7598 8.17437 35.6584 5.95051 36.6925 4.3973V3.79931C36.3127 4.37988 34.2857 7.17693 32.2255 8.86415ZM15.648 23.4951C10.7454 23.8341 3.73208 24.0016 0.693909 24.1227V25.4746C3.59047 25.3038 10.5563 24.9074 15.648 24.5379V23.4951ZM15.648 21.44C10.7454 21.779 3.67103 22.0526 0.693909 22.2096V23.5617C3.2016 23.3848 10.5595 22.9133 15.648 22.4827V21.44ZM15.648 19.3802C10.2149 19.7564 3.15414 20.2249 0.693909 20.3614V21.7242C1.64576 21.6237 9.64531 20.9648 15.648 20.4396V19.3802ZM0.693909 31.097C4.03514 30.9863 10.5351 30.8245 15.648 30.6397V29.5973C10.406 29.7014 4.26144 29.721 0.693909 29.7449V31.097ZM15.648 17.3974C10.2149 17.8112 3.15414 18.327 0.693909 18.4631V19.826C1.98399 19.6881 9.77342 18.9914 15.648 18.4419V17.3974ZM0.693909 34.8752C3.21974 34.8752 10.5574 34.8052 15.648 34.8052V33.763C10.6857 33.751 3.76346 33.5322 0.693909 33.5231V34.8752ZM0.693909 36.7887C3.36341 36.7887 10.6177 36.7973 15.648 36.7973V35.755C10.8068 35.7097 3.67284 35.4533 0.693909 35.4365V36.7887ZM0.693909 31.6698C3.93713 31.6643 10.7388 31.6239 15.648 31.6239V32.6663C10.316 32.7717 4.10315 32.9471 0.693909 33.0219V31.6698Z" fill="#98A0A6"/>
</g>
</svg>
