<svg width="121" height="18" viewBox="0 0 121 18" fill="none" xmlns="http://www.w3.org/2000/svg">
<path d="M4.8307 0.222168H0.387817V16.92H4.8307V0.222168Z" fill="#B0B6BA"/>
<path d="M16.2711 7.92318L11.7172 0.222168H7.05214V16.883H11.2729V8.21936H11.3469L16.4933 16.883H20.5659V0.222168H16.3081V7.92318H16.2711Z" fill="#B0B6BA"/>
<path d="M22.7503 0.222168V16.92H28.378C33.6724 16.92 36.19 15.5871 36.19 8.58961C36.19 1.70313 33.6724 0.296221 28.3409 0.296221L22.7503 0.222168ZM31.6361 8.58961C31.6361 12.8103 30.4513 13.0695 28.7852 13.0695H27.2672V4.29481H28.6371C30.4883 4.29481 31.6361 4.36886 31.6361 8.58961Z" fill="#B0B6BA"/>
<path d="M42.1879 0.222168H37.745V16.92H42.1879V0.222168Z" fill="#B0B6BA"/>
<path d="M79.0269 0C72.8069 0 71.6962 4.07265 71.6962 8.55256C71.6962 12.9954 72.7699 17.1051 79.0269 17.1051C85.2099 17.1051 86.3207 13.0325 86.3207 8.55256C86.3207 4.10967 85.247 0 79.0269 0ZM79.0269 13.1806C76.5833 13.1806 76.2501 11.4775 76.2501 8.73768C76.2501 5.9979 76.6204 4.33182 79.0269 4.33182C81.4705 4.33182 81.8037 6.03492 81.8037 8.73768C81.8037 11.4775 81.4335 13.1806 79.0269 13.1806Z" fill="#B0B6BA"/>
<path d="M110.275 0C104.055 0 102.944 4.07265 102.944 8.55256C102.944 12.9954 104.018 17.1051 110.275 17.1051C116.458 17.1051 117.569 13.0325 117.569 8.55256C117.532 4.10967 116.458 0 110.275 0ZM110.275 13.1806C107.832 13.1806 107.498 11.4775 107.498 8.73768C107.498 5.9979 107.869 4.33182 110.275 4.33182C112.719 4.33182 113.052 6.03492 113.052 8.73768C113.015 11.4775 112.682 13.1806 110.275 13.1806Z" fill="#B0B6BA"/>
<path d="M118.976 14.2542C118.161 14.2542 117.939 14.8096 117.939 15.5501C117.939 16.2535 118.124 16.8089 118.976 16.8089C119.79 16.8089 120.013 16.2535 120.013 15.5501C120.013 14.8096 119.79 14.2542 118.976 14.2542ZM118.976 16.5867C118.309 16.5867 118.124 16.1054 118.124 15.513C118.124 14.9207 118.272 14.4393 118.976 14.4393C119.679 14.4393 119.827 14.9207 119.827 15.513C119.79 16.1424 119.642 16.5867 118.976 16.5867Z" fill="#B0B6BA"/>
<path d="M119.531 15.2539C119.531 14.9577 119.42 14.7726 119.05 14.7726H118.457V16.2906H118.791V15.7352H118.976L119.198 16.2906H119.531L119.272 15.6982C119.457 15.6241 119.531 15.476 119.531 15.2539ZM119.05 15.476H118.791V15.0317H119.05C119.198 15.0317 119.235 15.1058 119.235 15.2539C119.235 15.402 119.161 15.476 119.05 15.476Z" fill="#B0B6BA"/>
<path d="M63.1435 10.4778H66.0314V10.774C66.0314 12.5881 66.1055 13.4397 63.884 13.4397C61.8477 13.4397 61.1072 12.5141 61.1072 8.73764C61.1072 4.81309 62.255 4.33178 64.0321 4.33178C65.365 4.33178 66.2536 4.70202 67.0311 5.10929L69.4006 1.36986C68.1418 0.555326 66.2906 0.0369873 64.2172 0.0369873C58.4415 0.0369873 56.6273 2.81379 56.6273 8.58954C56.6273 13.6248 57.9602 17.1421 63.4397 17.1421C64.4024 17.1421 65.2539 17.0681 65.9574 16.957H70.067V9.99645V6.92346H63.6989L63.1435 10.4778Z" fill="#B0B6BA"/>
<path d="M94.3919 10.4778H97.2798V10.774C97.2798 12.5881 97.3538 13.4397 95.1324 13.4397C93.096 13.4397 92.3556 12.5141 92.3556 8.73764C92.3556 4.81309 93.5033 4.33178 95.2805 4.33178C96.6133 4.33178 97.5019 4.70202 98.2794 5.10929L100.649 1.36986C99.3901 0.555326 97.5389 0.0369873 95.4656 0.0369873C89.6898 0.0369873 87.8757 2.81379 87.8757 8.58954C87.8757 13.6248 89.2085 17.1421 94.6881 17.1421C95.6507 17.1421 96.5023 17.0681 97.2057 16.957H101.315V9.99645V6.92346H94.8732L94.3919 10.4778Z" fill="#B0B6BA"/>
<path d="M55.5166 4.29481V0.222168H44.4464V16.883H55.5166V12.9584H48.8153V10.4408H53.2211L53.7765 6.47923H48.8153V4.29481H55.5166Z" fill="#B0B6BA"/>
</svg>
