<svg width="75" height="20" viewBox="0 0 75 20" fill="none" xmlns="http://www.w3.org/2000/svg">
<g id="TIM">
<path id="Fill 181" fill-rule="evenodd" clip-rule="evenodd" d="M23.8955 3.20449C23.8955 3.67648 23.5116 4.05794 23.04 4.05794H1.18206C0.710473 4.05794 0.326614 3.67648 0.326614 3.20449V0.853532C0.326614 0.381375 0.710473 0 1.18206 0H23.04C23.5116 0 23.8955 0.381375 23.8955 0.853532V3.20449Z" fill="#98A0A6"/>
<path id="Fill 182" fill-rule="evenodd" clip-rule="evenodd" d="M23.0406 11.8315C23.5121 11.8315 23.896 11.4499 23.896 10.9788V8.62785C23.896 8.15578 23.5121 7.77423 23.0406 7.77423H14.4659V11.8315H23.0406Z" fill="#98A0A6"/>
<path id="Fill 183" fill-rule="evenodd" clip-rule="evenodd" d="M1.18197 7.77423C0.710473 7.77423 0.326614 8.15578 0.326614 8.62776V10.9788C0.326614 11.4499 0.710473 11.8315 1.18197 11.8315H9.6563V7.77423H1.18197Z" fill="#98A0A6"/>
<path id="Fill 184" fill-rule="evenodd" clip-rule="evenodd" d="M23.0406 19.6077C23.5121 19.6077 23.896 19.223 23.896 18.7525V16.4031C23.896 15.9294 23.5121 15.548 23.0406 15.548H14.4659V19.6077H23.0406Z" fill="#98A0A6"/>
<path id="Fill 185" fill-rule="evenodd" clip-rule="evenodd" d="M1.18197 15.548C0.710473 15.548 0.326614 15.9295 0.326614 16.4031V18.7525C0.326614 19.223 0.710473 19.6077 1.18197 19.6077H9.6563V15.548H1.18197Z" fill="#98A0A6"/>
<path id="Fill 186" fill-rule="evenodd" clip-rule="evenodd" d="M43.4936 0.379742C43.4856 0.262207 43.3837 0.166775 43.2657 0.168354C38.6431 0.193791 34.0189 0.193791 29.3962 0.168354C29.2784 0.166775 29.1764 0.262207 29.1684 0.379742C29.092 1.58149 29.092 2.78158 29.1684 3.98166C29.1764 4.09928 29.2784 4.19472 29.3962 4.19314C30.9844 4.18516 32.5709 4.18033 34.1575 4.17717C34.1464 4.20577 34.14 4.23761 34.14 4.26778C34.1686 9.27793 34.1686 14.289 34.14 19.299C34.14 19.4263 34.2436 19.5376 34.371 19.544C35.6771 19.6267 36.9834 19.6267 38.2895 19.544C38.4186 19.5376 38.522 19.4263 38.5205 19.299C38.4935 14.289 38.4935 9.27793 38.5205 4.26778C38.522 4.23761 38.5157 4.20577 38.503 4.17717C40.0911 4.18033 41.6777 4.18516 43.2657 4.19314C43.3837 4.19472 43.4856 4.09928 43.4936 3.98166C43.5701 2.78158 43.5701 1.58149 43.4936 0.379742Z" fill="#98A0A6"/>
<path id="Fill 187" fill-rule="evenodd" clip-rule="evenodd" d="M46.8179 19.544C46.6905 19.5376 46.5869 19.4263 46.5869 19.299C46.6156 14.289 46.6156 5.4869 46.5869 0.478421C46.5869 0.349571 46.6905 0.238264 46.8179 0.23037C48.124 0.147657 49.4304 0.147657 50.7365 0.23037C50.8656 0.238264 50.969 0.349571 50.9675 0.478421C50.9404 5.4869 50.9404 14.289 50.9675 19.299C50.969 19.4263 50.8656 19.5376 50.7365 19.544C49.4304 19.6266 48.124 19.6266 46.8179 19.544Z" fill="#98A0A6"/>
<path id="Fill 188" fill-rule="evenodd" clip-rule="evenodd" d="M74.6989 0.478559C74.6989 0.349709 74.597 0.238489 74.4712 0.230507C74.2609 0.21621 74.0523 0.208316 73.842 0.200334C73.842 0.198755 73.8436 0.197177 73.8436 0.197177C73.8436 0.197177 73.8036 0.19551 73.7338 0.19551C73.1936 0.173319 72.6521 0.166916 72.1121 0.174898C71.2184 0.168495 70.2626 0.168495 70.0109 0.197177C69.506 0.254278 69.1142 1.04597 68.8529 1.70557C68.5917 2.36684 64.7767 12.1019 64.7767 12.1019C64.7767 12.1019 60.9616 2.36684 60.702 1.70557C60.4408 1.04597 60.0488 0.254278 59.5439 0.197177C59.2923 0.168495 58.3365 0.168495 57.4429 0.174898C56.9012 0.166916 56.3613 0.173319 55.8213 0.19551C55.7511 0.19551 55.7114 0.197177 55.7114 0.197177V0.200334C55.5026 0.208316 55.294 0.21621 55.0837 0.230507C54.9578 0.238489 54.856 0.349709 54.856 0.478559C54.883 5.48713 54.883 14.2892 54.856 19.2992C54.856 19.4264 54.9578 19.5377 55.0837 19.5441C56.3708 19.6268 57.6594 19.6268 58.9466 19.5441C59.0741 19.5377 59.176 19.4264 59.1743 19.2992C59.1584 16.3396 59.1521 12.0575 59.1551 8.01606C60.7162 11.5614 62.2487 15.0488 62.3968 15.4051C62.7058 16.1455 62.9512 16.508 63.1137 16.543C63.2776 16.5748 64.7767 16.543 64.7767 16.543C64.7767 16.543 66.2771 16.5748 66.4397 16.543C66.6038 16.508 66.8474 16.1455 67.1581 15.4051C67.3062 15.0488 68.8385 11.5614 70.3996 8.01606C70.4028 12.0575 70.3965 16.3396 70.379 19.2992C70.379 19.4264 70.4809 19.5377 70.6084 19.5441C71.8953 19.6268 73.1825 19.6268 74.4712 19.5441C74.597 19.5377 74.6989 19.4264 74.6989 19.2992C74.6718 14.2892 74.6718 5.48713 74.6989 0.478559Z" fill="#98A0A6"/>
</g>
</svg>
